<svg width="50" height="50" viewBox="0 0 50 50" fill="none" xmlns="http://www.w3.org/2000/svg">
<path d="M29.2778 39.9778L10.1667 39.9778C9.37506 39.9778 8.73333 39.3361 8.73333 38.5445L8.73333 11.7889C8.73333 10.9973 9.37506 10.3556 10.1667 10.3556L25.7723 10.3556L30.7111 15.5296L30.7111 38.5445C30.7111 39.3361 30.0694 39.9778 29.2778 39.9778Z" fill="#ECECEC" stroke="#303030" stroke-width="0.955555"/>
<path d="M28.3222 28.5112C28.5861 28.5112 28.8 28.2973 28.8 28.0334C28.8 27.7696 28.5861 27.5557 28.3222 27.5557V28.5112ZM16.8556 28.0334L21.6333 30.7919V25.275L16.8556 28.0334ZM28.3222 27.5557H21.1556V28.5112H28.3222V27.5557Z" fill="#60269E"/>
<path d="M12.0778 17.5223C13.3518 16.2483 14.6259 16.2483 15.9 17.5223C17.1741 18.7964 18.4481 18.7964 19.7222 17.5223C20.9963 16.2483 22.2704 16.2483 23.5444 17.5223C24.8185 18.7964 26.0926 18.7964 27.3667 17.5223" stroke="#303030" stroke-width="0.955555"/>
<path d="M12.0778 32.8111C13.3518 31.5371 14.6259 31.5371 15.9 32.8111C17.1741 34.0852 18.4481 34.0852 19.7222 32.8111C20.9963 31.5371 22.2704 31.5371 23.5444 32.8111C24.8185 34.0852 26.0926 34.0852 27.3667 32.8111" stroke="#303030" stroke-width="0.955555"/>
<path d="M12.0778 20.389C13.3518 19.115 14.6259 19.115 15.9 20.389C17.1741 21.6631 18.4481 21.6631 19.7222 20.389C20.9963 19.115 22.2704 19.115 23.5444 20.389C24.8185 21.6631 26.0926 21.6631 27.3667 20.389" stroke="#303030" stroke-width="0.955555"/>
<path d="M12.0778 35.6778C13.3518 34.4038 14.6259 34.4038 15.9 35.6778C17.1741 36.9519 18.4481 36.9519 19.7222 35.6778C20.9963 34.4038 22.2704 34.4038 23.5444 35.6778C24.8185 36.9519 26.0926 36.9519 27.3667 35.6778" stroke="#303030" stroke-width="0.955555"/>
<path fill-rule="evenodd" clip-rule="evenodd" d="M38.4124 20.408L39.524 18.2448L40.6356 20.408H38.4124ZM37.1616 30.821C36.5854 30.7582 36.1088 30.612 35.7303 30.3836L35.0874 32.4125C35.6633 32.782 36.3236 33.0297 37.146 33.0443C39.0734 33.0443 40.6356 31.482 40.6356 29.5547V20.8981H38.4124V29.5702C38.4124 30.2611 37.8522 30.821 37.1616 30.821Z" fill="#60269E"/>
</svg>
