<svg width="50" height="50" viewBox="0 0 50 50" fill="none" xmlns="http://www.w3.org/2000/svg">
<path d="M26.7709 14.7879L13.25 28.8289L17.3125 32.8914L31.1177 19.1669L26.7709 14.7879Z" fill="#FFC12F"/>
<path d="M21.375 36.9539L35.125 23.2039L31.1177 19.1669L17.3125 32.8914L21.375 36.9539Z" fill="#FFC12F"/>
<path d="M28.875 12.5789L26.7709 14.7879L31.1177 19.1669L35.125 23.2039L37.625 20.7039L28.875 12.5789Z" fill="#FFC12F"/>
<path d="M37 13.2039C32.625 8.82996 28.875 12.5789 28.875 12.5789L37.625 20.7039C37.625 20.7039 41.375 17.5779 37 13.2039Z" fill="#C76D93"/>
<path fill-rule="evenodd" clip-rule="evenodd" d="M11.5431 36.0834L13.25 28.8289L17.3125 32.8914L21.375 36.9539L13.875 38.7186L11.5431 36.0834Z" fill="#F9F9F9"/>
<path d="M11.5431 36.0834L10.9812 38.4711C10.8749 38.923 11.2809 39.329 11.7328 39.2227L13.875 38.7186L11.5431 36.0834Z" fill="#343245"/>
<path d="M13.25 28.8289L26.7709 14.7879M13.25 28.8289L17.3125 32.8914M13.25 28.8289L11.5431 36.0834M28.875 12.5789C28.875 12.5789 32.625 8.82996 37 13.2039C41.375 17.5779 37.625 20.7039 37.625 20.7039M28.875 12.5789L26.7709 14.7879M28.875 12.5789L37.625 20.7039M37.625 20.7039L35.125 23.2039M21.375 36.9539L35.125 23.2039M21.375 36.9539L17.3125 32.8914M21.375 36.9539L13.875 38.7186M26.7709 14.7879L31.1177 19.1669M35.125 23.2039L31.1177 19.1669M17.3125 32.8914L31.1177 19.1669M11.5431 36.0834L10.9812 38.4711C10.8749 38.923 11.2809 39.329 11.7328 39.2227L13.875 38.7186M11.5431 36.0834L13.875 38.7186" stroke="#303030" stroke-width="1.25"/>
</svg>
