<svg width="50" height="50" viewBox="0 0 50 50" fill="none" xmlns="http://www.w3.org/2000/svg">
<mask id="path-1-inside-1_1_1423" fill="white">
<path fill-rule="evenodd" clip-rule="evenodd" d="M32.6221 9.66675H17.0927V14.1027H32.6221V9.66675Z"/>
</mask>
<path d="M17.0927 9.66675V7.95246H15.3784V9.66675H17.0927ZM32.6221 9.66675H34.3363V7.95246H32.6221V9.66675ZM17.0927 14.1027H15.3784V15.817H17.0927V14.1027ZM32.6221 14.1027V15.817H34.3363V14.1027H32.6221ZM17.0927 11.381H32.6221V7.95246H17.0927V11.381ZM18.8069 14.1027V9.66675H15.3784V14.1027H18.8069ZM32.6221 12.3884H17.0927V15.817H32.6221V12.3884ZM30.9078 9.66675V14.1027H34.3363V9.66675H30.9078Z" fill="#303030" mask="url(#path-1-inside-1_1_1423)"/>
<mask id="path-3-inside-2_1_1423" fill="white">
<path fill-rule="evenodd" clip-rule="evenodd" d="M14.5714 12.9916C9.83756 12.9916 6 16.8291 6 21.563V31.042C6 35.7759 9.83757 39.6134 14.5714 39.6134H35.1429C39.8767 39.6134 43.7143 35.7759 43.7143 31.042V21.563C43.7143 16.8291 39.8767 12.9916 35.1429 12.9916H14.5714ZM24.8571 30.7395C27.3076 30.7395 29.2941 28.753 29.2941 26.3025C29.2941 23.852 27.3076 21.8655 24.8571 21.8655C22.4067 21.8655 20.4202 23.852 20.4202 26.3025C20.4202 28.753 22.4067 30.7395 24.8571 30.7395Z"/>
</mask>
<path fill-rule="evenodd" clip-rule="evenodd" d="M14.5714 12.9916C9.83756 12.9916 6 16.8291 6 21.563V31.042C6 35.7759 9.83757 39.6134 14.5714 39.6134H35.1429C39.8767 39.6134 43.7143 35.7759 43.7143 31.042V21.563C43.7143 16.8291 39.8767 12.9916 35.1429 12.9916H14.5714ZM24.8571 30.7395C27.3076 30.7395 29.2941 28.753 29.2941 26.3025C29.2941 23.852 27.3076 21.8655 24.8571 21.8655C22.4067 21.8655 20.4202 23.852 20.4202 26.3025C20.4202 28.753 22.4067 30.7395 24.8571 30.7395Z" fill="#8E74F7"/>
<path d="M7.71429 21.563C7.71429 17.7759 10.7843 14.7059 14.5714 14.7059V11.2773C8.89078 11.2773 4.28571 15.8824 4.28571 21.563H7.71429ZM7.71429 31.042V21.563H4.28571V31.042H7.71429ZM14.5714 37.8991C10.7843 37.8991 7.71429 34.8291 7.71429 31.042H4.28571C4.28571 36.7226 8.8908 41.3277 14.5714 41.3277V37.8991ZM35.1429 37.8991H14.5714V41.3277H35.1429V37.8991ZM42 31.042C42 34.8291 38.93 37.8991 35.1429 37.8991V41.3277C40.8235 41.3277 45.4286 36.7226 45.4286 31.042H42ZM42 21.563V31.042H45.4286V21.563H42ZM35.1429 14.7059C38.9299 14.7059 42 17.7759 42 21.563H45.4286C45.4286 15.8824 40.8235 11.2773 35.1429 11.2773V14.7059ZM14.5714 14.7059H35.1429V11.2773H14.5714V14.7059ZM27.5798 26.3025C27.5798 27.8062 26.3608 29.0252 24.8571 29.0252V32.4538C28.2544 32.4538 31.0084 29.6997 31.0084 26.3025H27.5798ZM24.8571 23.5798C26.3608 23.5798 27.5798 24.7988 27.5798 26.3025H31.0084C31.0084 22.9053 28.2544 20.1512 24.8571 20.1512V23.5798ZM22.1345 26.3025C22.1345 24.7988 23.3534 23.5798 24.8571 23.5798V20.1512C21.4599 20.1512 18.7059 22.9053 18.7059 26.3025H22.1345ZM24.8571 29.0252C23.3534 29.0252 22.1345 27.8062 22.1345 26.3025H18.7059C18.7059 29.6997 21.4599 32.4538 24.8571 32.4538V29.0252Z" fill="#303030" mask="url(#path-3-inside-2_1_1423)"/>
</svg>
