<svg xmlns="http://www.w3.org/2000/svg" width="780" height="700" viewBox="0 0 780 700" fill="none">
  <path d="M733.604 355.427V341.427H735.564L735.704 343.611C736.208 342.752 736.861 342.127 737.664 341.735C738.485 341.343 739.325 341.147 740.184 341.147C741.173 341.147 742.107 341.371 742.984 341.819C743.861 342.267 744.533 342.957 745 343.891C745.299 343.256 745.719 342.743 746.26 342.351C746.801 341.94 747.389 341.641 748.024 341.455C748.677 341.249 749.293 341.147 749.872 341.147C750.768 341.147 751.617 341.333 752.42 341.707C753.241 342.08 753.913 342.659 754.436 343.443C754.959 344.227 755.22 345.235 755.22 346.467V355.427H752.98V346.691C752.98 345.421 752.663 344.507 752.028 343.947C751.393 343.387 750.609 343.107 749.676 343.107C748.948 343.107 748.267 343.284 747.632 343.639C746.997 343.993 746.484 344.516 746.092 345.207C745.719 345.897 745.532 346.747 745.532 347.755V355.427H743.292V346.691C743.292 345.421 742.975 344.507 742.34 343.947C741.705 343.387 740.921 343.107 739.988 343.107C739.372 343.107 738.737 343.275 738.084 343.611C737.449 343.928 736.917 344.441 736.488 345.151C736.059 345.86 735.844 346.793 735.844 347.951V355.427H733.604Z" fill="white"/>
  <path d="M706.917 355.427V341.427H708.877L709.016 343.611C709.52 342.752 710.174 342.127 710.977 341.735C711.798 341.343 712.638 341.147 713.497 341.147C714.486 341.147 715.419 341.371 716.297 341.819C717.174 342.267 717.846 342.957 718.312 343.891C718.611 343.256 719.031 342.743 719.573 342.351C720.114 341.94 720.702 341.641 721.336 341.455C721.99 341.249 722.606 341.147 723.185 341.147C724.081 341.147 724.93 341.333 725.732 341.707C726.554 342.08 727.226 342.659 727.749 343.443C728.271 344.227 728.533 345.235 728.533 346.467V355.427H726.292V346.691C726.292 345.421 725.975 344.507 725.341 343.947C724.706 343.387 723.922 343.107 722.989 343.107C722.261 343.107 721.579 343.284 720.945 343.639C720.31 343.993 719.796 344.516 719.404 345.207C719.031 345.897 718.844 346.747 718.844 347.755V355.427H716.604V346.691C716.604 345.421 716.287 344.507 715.653 343.947C715.018 343.387 714.234 343.107 713.3 343.107C712.684 343.107 712.05 343.275 711.396 343.611C710.762 343.928 710.23 344.441 709.8 345.151C709.371 345.86 709.156 346.793 709.156 347.951V355.427H706.917Z" fill="white"/>
  <path d="M750.944 293.987C752.075 293.987 753.12 294.136 754.08 294.435C755.061 294.733 755.915 295.224 756.64 295.907C757.365 296.589 757.909 297.507 758.272 298.659L753.792 300.771C753.579 300.024 753.205 299.437 752.672 299.011C752.16 298.563 751.467 298.339 750.592 298.339C749.995 298.339 749.44 298.488 748.928 298.787C748.437 299.064 748.011 299.469 747.648 300.003C747.285 300.536 747.008 301.187 746.816 301.955C746.645 302.723 746.56 303.587 746.56 304.547C746.56 304.611 746.56 304.685 746.56 304.771C746.56 304.835 746.56 304.931 746.56 305.059L746.624 305.251C746.88 304.611 747.275 304.077 747.808 303.651C748.363 303.203 748.992 302.861 749.696 302.627C750.4 302.392 751.104 302.275 751.808 302.275C753.109 302.275 754.272 302.531 755.296 303.043C756.32 303.555 757.12 304.291 757.696 305.251C758.293 306.189 758.592 307.331 758.592 308.675C758.592 310.125 758.261 311.384 757.6 312.451C756.939 313.496 756.021 314.307 754.848 314.883C753.675 315.459 752.277 315.747 750.656 315.747C748.843 315.747 747.243 315.352 745.856 314.563C744.491 313.752 743.424 312.557 742.656 310.979C741.909 309.379 741.536 307.405 741.536 305.059C741.536 302.541 741.952 300.472 742.784 298.851C743.616 297.229 744.736 296.013 746.144 295.203C747.573 294.392 749.173 293.987 750.944 293.987ZM750.56 305.987C750.005 305.987 749.493 306.104 749.024 306.339C748.576 306.552 748.213 306.872 747.936 307.299C747.68 307.725 747.552 308.227 747.552 308.803C747.552 309.357 747.691 309.848 747.968 310.275C748.245 310.701 748.608 311.032 749.056 311.267C749.504 311.501 750.005 311.619 750.56 311.619C751.52 311.619 752.256 311.373 752.768 310.883C753.301 310.392 753.568 309.699 753.568 308.803C753.568 308.205 753.451 307.704 753.216 307.299C752.981 306.872 752.64 306.552 752.192 306.339C751.765 306.104 751.221 305.987 750.56 305.987Z" fill="white"/>
  <path d="M730.496 315.747C728.661 315.747 727.061 315.395 725.696 314.691C724.352 313.965 723.221 312.792 722.304 311.171L727.136 308.771C727.37 309.624 727.744 310.307 728.256 310.819C728.789 311.331 729.578 311.587 730.624 311.587C731.285 311.587 731.85 311.469 732.32 311.235C732.789 311 733.152 310.659 733.408 310.211C733.685 309.741 733.824 309.176 733.824 308.515C733.824 307.875 733.696 307.341 733.44 306.915C733.205 306.488 732.853 306.168 732.384 305.955C731.914 305.72 731.328 305.603 730.624 305.603C730.112 305.603 729.653 305.656 729.248 305.763C728.842 305.848 728.469 305.987 728.128 306.179C727.808 306.349 727.509 306.573 727.232 306.851L723.072 306.083L724.416 294.307H737.728V298.563H728.416L727.872 302.787L727.776 303.299H727.808C728.234 302.808 728.832 302.435 729.6 302.179C730.368 301.923 731.221 301.795 732.16 301.795C733.546 301.795 734.73 302.072 735.712 302.627C736.693 303.181 737.45 303.939 737.984 304.899C738.517 305.859 738.784 306.957 738.784 308.195C738.784 309.496 738.56 310.627 738.112 311.587C737.685 312.525 737.077 313.304 736.288 313.923C735.52 314.541 734.634 315 733.632 315.299C732.65 315.597 731.605 315.747 730.496 315.747Z" fill="white"/>
  <path d="M704.201 315.427V311.907C706.015 310.776 707.561 309.72 708.841 308.739C710.121 307.757 711.156 306.829 711.945 305.955C712.756 305.08 713.353 304.248 713.737 303.459C714.121 302.669 714.313 301.901 714.313 301.155C714.313 300.344 714.068 299.672 713.577 299.139C713.108 298.584 712.404 298.307 711.465 298.307C710.463 298.307 709.684 298.68 709.129 299.427C708.575 300.152 708.276 301.219 708.233 302.627L703.529 301.187C703.572 299.608 703.945 298.285 704.649 297.219C705.375 296.152 706.356 295.352 707.593 294.819C708.831 294.264 710.239 293.987 711.817 293.987C713.204 293.987 714.399 294.189 715.401 294.595C716.425 294.979 717.257 295.501 717.897 296.163C718.537 296.803 719.007 297.528 719.305 298.339C719.625 299.128 719.785 299.939 719.785 300.771C719.785 302.136 719.433 303.416 718.729 304.611C718.025 305.784 717.001 306.925 715.657 308.035C714.335 309.123 712.724 310.221 710.825 311.331V311.363C711.188 311.341 711.615 311.32 712.105 311.299C712.596 311.277 713.108 311.267 713.641 311.267C714.175 311.245 714.655 311.235 715.081 311.235H720.041V315.427H704.201Z" fill="white"/>
  <path d="M398.604 633.734V619.734H400.564L400.704 621.918C401.208 621.059 401.861 620.434 402.664 620.042C403.485 619.65 404.325 619.454 405.184 619.454C406.173 619.454 407.107 619.678 407.984 620.126C408.861 620.574 409.533 621.265 410 622.198C410.299 621.563 410.719 621.05 411.26 620.658C411.801 620.247 412.389 619.949 413.024 619.762C413.677 619.557 414.293 619.454 414.872 619.454C415.768 619.454 416.617 619.641 417.42 620.014C418.241 620.387 418.913 620.966 419.436 621.75C419.959 622.534 420.22 623.542 420.22 624.774V633.734H417.98V624.998C417.98 623.729 417.663 622.814 417.028 622.254C416.393 621.694 415.609 621.414 414.676 621.414C413.948 621.414 413.267 621.591 412.632 621.946C411.997 622.301 411.484 622.823 411.092 623.514C410.719 624.205 410.532 625.054 410.532 626.062V633.734H408.292V624.998C408.292 623.729 407.975 622.814 407.34 622.254C406.705 621.694 405.921 621.414 404.988 621.414C404.372 621.414 403.737 621.582 403.084 621.918C402.449 622.235 401.917 622.749 401.488 623.458C401.059 624.167 400.844 625.101 400.844 626.258V633.734H398.604Z" fill="white"/>
  <path d="M371.917 633.734V619.734H373.876L374.017 621.918C374.521 621.059 375.174 620.434 375.977 620.042C376.798 619.65 377.638 619.454 378.497 619.454C379.486 619.454 380.419 619.678 381.297 620.126C382.174 620.574 382.846 621.265 383.312 622.198C383.611 621.563 384.031 621.05 384.573 620.658C385.114 620.247 385.702 619.949 386.337 619.762C386.99 619.557 387.606 619.454 388.185 619.454C389.081 619.454 389.93 619.641 390.733 620.014C391.554 620.387 392.226 620.966 392.749 621.75C393.271 622.534 393.533 623.542 393.533 624.774V633.734H391.293V624.998C391.293 623.729 390.975 622.814 390.341 622.254C389.706 621.694 388.922 621.414 387.988 621.414C387.26 621.414 386.579 621.591 385.945 621.946C385.31 622.301 384.797 622.823 384.405 623.514C384.031 624.205 383.845 625.054 383.845 626.062V633.734H381.604V624.998C381.604 623.729 381.287 622.814 380.652 622.254C380.018 621.694 379.234 621.414 378.301 621.414C377.685 621.414 377.05 621.582 376.397 621.918C375.762 622.235 375.23 622.749 374.801 623.458C374.371 624.167 374.156 625.101 374.156 626.258V633.734H371.917Z" fill="white"/>
  <path d="M414.797 572.358C416.397 572.358 417.784 572.593 418.957 573.062C420.131 573.531 421.037 574.203 421.677 575.078C422.339 575.931 422.669 576.955 422.669 578.15C422.669 579.281 422.392 580.251 421.837 581.062C421.283 581.873 420.461 582.491 419.373 582.918V582.95C420.653 583.377 421.645 584.006 422.349 584.838C423.053 585.649 423.405 586.694 423.405 587.974C423.405 589.211 423.053 590.289 422.349 591.206C421.667 592.102 420.685 592.806 419.405 593.318C418.125 593.809 416.589 594.054 414.797 594.054C413.027 594.054 411.501 593.809 410.221 593.318C408.941 592.806 407.949 592.102 407.245 591.206C406.563 590.289 406.221 589.211 406.221 587.974C406.221 586.694 406.573 585.649 407.277 584.838C407.981 584.006 408.973 583.377 410.253 582.95V582.918C409.187 582.513 408.365 581.905 407.789 581.094C407.213 580.262 406.925 579.281 406.925 578.15C406.925 576.955 407.245 575.931 407.885 575.078C408.547 574.203 409.475 573.531 410.669 573.062C411.864 572.593 413.24 572.358 414.797 572.358ZM414.829 576.358C413.976 576.358 413.293 576.572 412.781 576.998C412.269 577.425 412.013 578.022 412.013 578.79C412.013 579.537 412.269 580.134 412.781 580.582C413.293 581.009 413.976 581.222 414.829 581.222C415.683 581.222 416.355 581.009 416.845 580.582C417.357 580.134 417.613 579.537 417.613 578.79C417.613 578.022 417.357 577.425 416.845 576.998C416.355 576.572 415.683 576.358 414.829 576.358ZM414.829 590.054C415.512 590.054 416.088 589.958 416.557 589.766C417.048 589.553 417.421 589.243 417.677 588.838C417.933 588.433 418.061 587.963 418.061 587.43C418.061 586.875 417.933 586.406 417.677 586.022C417.421 585.617 417.048 585.318 416.557 585.126C416.067 584.913 415.491 584.806 414.829 584.806C414.168 584.806 413.581 584.913 413.069 585.126C412.579 585.318 412.205 585.617 411.949 586.022C411.693 586.406 411.565 586.875 411.565 587.43C411.565 587.963 411.693 588.433 411.949 588.838C412.205 589.243 412.579 589.553 413.069 589.766C413.56 589.958 414.147 590.054 414.829 590.054Z" fill="white"/>
  <path d="M395.277 594.054C393.442 594.054 391.842 593.702 390.477 592.998C389.133 592.273 388.002 591.099 387.085 589.478L391.917 587.078C392.152 587.931 392.525 588.614 393.037 589.126C393.57 589.638 394.36 589.894 395.405 589.894C396.066 589.894 396.632 589.777 397.101 589.542C397.57 589.307 397.933 588.966 398.189 588.518C398.466 588.049 398.605 587.483 398.605 586.822C398.605 586.182 398.477 585.649 398.221 585.222C397.986 584.796 397.634 584.475 397.165 584.262C396.696 584.027 396.109 583.91 395.405 583.91C394.893 583.91 394.434 583.963 394.029 584.07C393.624 584.155 393.25 584.294 392.909 584.486C392.589 584.657 392.29 584.881 392.013 585.158L387.853 584.39L389.197 572.614H402.509V576.87H393.197L392.653 581.094L392.557 581.606H392.589C393.016 581.115 393.613 580.742 394.381 580.486C395.149 580.23 396.002 580.102 396.941 580.102C398.328 580.102 399.512 580.379 400.493 580.934C401.474 581.489 402.232 582.246 402.765 583.206C403.298 584.166 403.565 585.265 403.565 586.502C403.565 587.803 403.341 588.934 402.893 589.894C402.466 590.833 401.858 591.611 401.069 592.23C400.301 592.849 399.416 593.307 398.413 593.606C397.432 593.905 396.386 594.054 395.277 594.054Z" fill="white"/>
  <path d="M376.788 594.054C374.527 594.054 372.639 593.617 371.124 592.742C369.631 591.846 368.596 590.545 368.02 588.838L373.076 586.662C373.183 587.43 373.375 588.049 373.652 588.518C373.951 588.966 374.346 589.297 374.836 589.51C375.327 589.702 375.903 589.798 376.564 589.798C377.162 589.798 377.663 589.702 378.068 589.51C378.495 589.297 378.826 588.998 379.06 588.614C379.295 588.23 379.412 587.771 379.412 587.238C379.412 586.683 379.295 586.235 379.06 585.894C378.847 585.553 378.527 585.307 378.1 585.158C377.695 585.009 377.194 584.934 376.596 584.934C376.319 584.934 376.063 584.945 375.828 584.966C375.594 584.966 375.327 584.987 375.028 585.03V581.446C375.199 581.468 375.37 581.489 375.54 581.51C375.711 581.51 375.914 581.51 376.148 581.51C377.151 581.51 377.866 581.307 378.292 580.902C378.74 580.475 378.964 579.814 378.964 578.918C378.964 578.15 378.74 577.563 378.292 577.158C377.866 576.753 377.258 576.55 376.468 576.55C375.636 576.55 374.954 576.774 374.42 577.222C373.887 577.649 373.546 578.385 373.396 579.43L368.564 577.766C368.799 576.593 369.3 575.601 370.068 574.79C370.836 573.979 371.796 573.361 372.948 572.934C374.122 572.507 375.412 572.294 376.82 572.294C378.442 572.294 379.807 572.529 380.916 572.998C382.026 573.468 382.868 574.139 383.444 575.014C384.02 575.889 384.308 576.913 384.308 578.086C384.308 579.003 384.159 579.771 383.86 580.39C383.583 581.009 383.22 581.51 382.772 581.894C382.346 582.278 381.908 582.566 381.46 582.758C381.012 582.929 380.639 583.035 380.34 583.078V583.174C380.724 583.174 381.162 583.249 381.652 583.398C382.143 583.547 382.623 583.793 383.092 584.134C383.562 584.454 383.946 584.902 384.244 585.478C384.564 586.054 384.724 586.769 384.724 587.622C384.724 588.945 384.372 590.086 383.668 591.046C382.986 592.006 382.047 592.753 380.852 593.286C379.658 593.798 378.303 594.054 376.788 594.054Z" fill="white"/>
  <path fill-rule="evenodd" clip-rule="evenodd" d="M728.119 106.293C728.51 105.902 729.143 105.902 729.533 106.293L735.897 112.657C736.288 113.047 736.288 113.681 735.897 114.071C735.507 114.462 734.874 114.462 734.483 114.071L729.826 109.414V262H727.826V109.414L723.169 114.071C722.779 114.462 722.146 114.462 721.755 114.071C721.365 113.681 721.365 113.047 721.755 112.657L728.119 106.293Z" fill="white"/>
  <path fill-rule="evenodd" clip-rule="evenodd" d="M66.2929 604.441C65.9024 604.051 65.9024 603.418 66.2929 603.027L72.6569 596.663C73.0474 596.273 73.6805 596.273 74.0711 596.663C74.4616 597.054 74.4616 597.687 74.0711 598.077L69.4142 602.734H311.5V604.734H69.4142L74.0711 609.391C74.4616 609.782 74.4616 610.415 74.0711 610.805C73.6805 611.196 73.0474 611.196 72.6569 610.805L66.2929 604.441ZM683.082 596.663L689.446 603.027C689.836 603.418 689.836 604.051 689.446 604.441L683.082 610.805C682.691 611.196 682.058 611.196 681.667 610.805C681.277 610.415 681.277 609.782 681.667 609.391L686.324 604.734H477V602.734H686.324L681.667 598.077C681.277 597.687 681.277 597.054 681.667 596.663C682.058 596.273 682.691 596.273 683.082 596.663Z" fill="white"/>
  <path d="M735.898 545.106L729.534 551.47C729.143 551.861 728.51 551.861 728.119 551.47L721.755 545.106C721.365 544.716 721.365 544.083 721.755 543.692C722.146 543.302 722.779 543.302 723.17 543.692L727.826 548.349V387.293H729.826V548.349L734.483 543.692C734.874 543.302 735.507 543.302 735.898 543.692C736.288 544.083 736.288 544.716 735.898 545.106Z" fill="white"/>
  <path d="M65 114.089C65 109.784 68.4906 106.293 72.7965 106.293H677.459C681.765 106.293 685.256 109.784 685.256 114.089V545.496C685.256 549.802 681.765 553.293 677.459 553.293H72.7965C68.4906 553.293 65 549.802 65 545.496V114.089Z" fill="#838383"/>
  <path d="M66.7326 114.089C66.7326 110.74 69.4475 108.026 72.7965 108.026H677.459C680.808 108.026 683.523 110.74 683.523 114.089V494.386H66.7326V114.089Z" fill="black"/>
  <path d="M77.1279 118.421H673.128V454.537H77.1279V118.421Z" fill="#1A1A1A"/>
  <path d="M66.7326 494.386H683.523V545.496C683.523 548.845 680.808 551.56 677.459 551.56H72.7965C69.4475 551.56 66.7326 548.845 66.7326 545.496V494.386Z" fill="#4D4D4D"/>
  <path d="M94.3902 525.09C99.7507 525.09 103.812 523.116 105.978 519.688L100.617 517.247C99.4078 519.186 97.26 520.263 94.5887 520.263C90.9428 520.263 88.5784 518.522 88.3257 515.722H106.429V514.071C106.429 512.563 106.212 511.199 105.779 509.979H99.0288C99.2454 510.499 99.3717 511.092 99.3717 511.756V511.881H88.2896C88.3437 511.181 88.5062 510.535 88.7589 509.979H83.3441V520.55C85.4559 523.475 89.3003 525.09 94.3902 525.09Z" fill="#FAFAFA"/>
  <path d="M94.0653 527.457C89.192 527.457 85.4378 529.144 83.3441 532.159V535.138H88.452C89.0296 532.859 90.9969 531.513 93.975 531.513C96.899 531.513 98.9025 532.859 99.2995 535.138H106.05C104.823 530.257 100.617 527.457 94.0653 527.457Z" fill="#FAFAFA"/>
</svg>