<svg xmlns="http://www.w3.org/2000/svg" width="700" height="700" viewBox="0 0 700 700" fill="none">
  <path fill-rule="evenodd" clip-rule="evenodd" d="M522.349 232.231L522.631 232.244L522.641 232.244L535.108 232.644L535.361 236.101L535.112 236.119C528.997 236.581 524.178 241.685 524.178 247.913C524.178 248.02 524.18 248.127 524.183 248.234L524.183 248.244L524.189 248.472L523.544 248.519L522.349 232.231ZM522.889 232.752L523.85 245.855C524.766 240.409 529.255 236.175 534.826 235.642L534.642 233.129L522.889 232.752Z" fill="#FAFAFA"/>
  <path d="M423.053 676.218C422.333 676.179 421.889 675.415 422.213 674.771L515.658 488.746C515.906 488.252 516.506 488.053 517 488.3L532.135 495.881C532.63 496.128 532.829 496.73 532.581 497.224L442.42 676.658C442.241 677.013 441.869 677.229 441.473 677.208L423.053 676.218Z" fill="#303030"/>
  <path fill-rule="evenodd" clip-rule="evenodd" d="M516.888 488.524C516.518 488.338 516.067 488.488 515.882 488.858L422.436 674.883C422.194 675.366 422.527 675.939 423.066 675.968L441.486 676.958C441.784 676.974 442.063 676.812 442.196 676.546L532.358 497.111C532.544 496.741 532.394 496.29 532.023 496.104L516.888 488.524ZM515.435 488.633C515.744 488.017 516.495 487.768 517.112 488.077L519.831 489.439L521.02 490.034L528.439 493.75L532.247 495.657C532.27 495.668 532.291 495.68 532.313 495.692C532.882 496.021 533.104 496.741 532.805 497.336L442.643 676.77C442.42 677.214 441.955 677.484 441.459 677.457L423.04 676.468C422.14 676.419 421.585 675.464 421.99 674.658L515.435 488.633Z" fill="#FAFAFA"/>
  <path d="M422.808 677.058C422.832 676.587 423.234 676.226 423.705 676.25L439.899 677.091C440.37 677.116 440.732 677.517 440.707 677.988C440.683 678.458 440.281 678.82 439.811 678.796L423.616 677.955C423.145 677.93 422.784 677.529 422.808 677.058Z" fill="#5A5A5A"/>
  <path fill-rule="evenodd" clip-rule="evenodd" d="M422.558 677.045C422.59 676.436 423.109 675.969 423.718 676L439.912 676.841C440.521 676.873 440.989 677.392 440.957 678.001C440.925 678.609 440.406 679.077 439.798 679.045L423.603 678.204C422.995 678.173 422.527 677.654 422.558 677.045ZM423.692 676.5C423.359 676.482 423.075 676.738 423.058 677.071C423.04 677.404 423.296 677.688 423.629 677.705L439.824 678.546C440.157 678.563 440.44 678.308 440.458 677.975C440.475 677.642 440.219 677.358 439.886 677.341L423.692 676.5Z" fill="#FAFAFA"/>
  <path fill-rule="evenodd" clip-rule="evenodd" d="M539.742 476.231C539.718 476.102 539.693 475.975 539.666 475.847L669.109 670.136C669.577 670.839 669.09 671.783 668.246 671.807L665.323 671.892C664.951 671.902 664.601 671.72 664.395 671.41L590.061 559.138L589.16 559.692C588.667 559.995 588.023 559.854 587.702 559.373L538.404 485.415L538.412 485.398C538.435 485.352 538.458 485.306 538.481 485.26L587.827 559.29C588.103 559.704 588.657 559.825 589.081 559.565L590.042 558.974L590.045 558.972L593.394 556.76L539.742 476.231ZM537.113 483.209L537.113 483.208C537.092 483.266 537.071 483.325 537.049 483.383L537.05 483.384C537.071 483.326 537.093 483.267 537.113 483.209ZM593.477 556.885L590.188 559.058L664.52 671.328C664.697 671.594 664.999 671.751 665.318 671.742L668.241 671.657C668.968 671.636 669.387 670.824 668.984 670.219L593.477 556.885Z" fill="#808080"/>
  <path fill-rule="evenodd" clip-rule="evenodd" d="M536.518 473.204L536.647 473.45C536.671 473.496 536.695 473.541 536.718 473.587L536.819 473.785L536.817 473.786L536.4 474.066L536.323 473.914L536.322 473.912L536.272 473.815C536.25 473.771 536.227 473.727 536.204 473.683L536.154 473.587L536.153 473.585L536.1 473.485L536.515 473.206L536.518 473.204ZM539.155 474.629L669.317 669.998C669.894 670.864 669.293 672.027 668.253 672.057L665.33 672.141C664.872 672.155 664.44 671.93 664.187 671.548L589.986 559.478L589.291 559.905C588.683 560.279 587.89 560.105 587.494 559.511L538.115 485.433L538.189 485.286C538.193 485.277 538.197 485.269 538.202 485.26C538.22 485.223 538.238 485.187 538.256 485.15L538.447 484.759L538.768 485.24L588.035 559.151C588.237 559.453 588.641 559.542 588.95 559.352L589.907 558.764L589.908 558.763L589.91 558.762L589.912 558.761L593.046 556.69L540.146 477.288L539.505 476.326L539.496 476.275C539.473 476.149 539.448 476.024 539.422 475.899L539.155 474.629ZM593.407 557.231L590.534 559.128L664.729 671.19C664.858 671.384 665.078 671.498 665.311 671.492L668.234 671.407C668.764 671.392 669.07 670.799 668.776 670.358L593.407 557.231ZM537.044 482.654L537.391 483.174L537.368 483.239L537.349 483.292C537.328 483.352 537.306 483.412 537.284 483.471L537.264 483.524L537.113 483.93L537.107 483.92L536.77 483.415L536.815 483.296C536.836 483.239 536.857 483.182 536.877 483.124L536.924 482.991L537.044 482.654Z" fill="#FAFAFA"/>
  <path fill-rule="evenodd" clip-rule="evenodd" d="M527.079 466.92C527.196 466.933 527.312 466.947 527.428 466.963C531.345 467.507 534.674 469.887 536.515 473.206C536.621 473.396 536.721 473.589 536.817 473.786C537.61 475.413 538.055 477.241 538.055 479.173C538.055 479.908 537.99 480.628 537.867 481.327C537.751 481.984 537.583 482.622 537.368 483.239C537.335 483.334 537.3 483.429 537.264 483.524C537.214 483.657 537.161 483.789 537.107 483.92C535.246 488.372 530.846 491.501 525.716 491.501C524.991 491.501 524.282 491.439 523.591 491.319L528.439 493.75L532.313 495.692L532.83 495.951L538.189 485.286C538.193 485.277 538.197 485.269 538.202 485.26C541.446 478.772 539.342 471.052 533.534 467.053C532.988 466.677 532.408 466.333 531.797 466.027C530.726 465.49 529.52 465.489 528.489 465.922C528.047 466.107 527.638 466.372 527.285 466.708C527.214 466.776 527.145 466.847 527.079 466.92ZM526.39 466.982C527.639 465.224 530.035 464.584 532.021 465.58C536.73 467.941 539.634 472.433 540.146 477.288C540.424 479.926 539.996 482.671 538.768 485.24C538.725 485.331 538.681 485.421 538.635 485.511L533.052 496.622L520.867 490.512L521.077 490.059C522.501 490.665 524.069 491.001 525.716 491.001C530.917 491.001 535.335 487.65 536.924 482.991C537.333 481.794 537.555 480.509 537.555 479.173C537.555 477.284 537.111 475.498 536.323 473.914L536.322 473.912C536.267 473.803 536.211 473.695 536.154 473.587L536.153 473.585C534.284 470.109 530.726 467.674 526.575 467.376L526.527 467.373L526.132 467.345L526.39 466.982ZM516.482 486.586L516.703 486.843L516.727 486.871C517.589 487.874 518.616 488.732 519.767 489.402L519.529 489.841L515.789 487.966L516.482 486.586ZM516.594 487.476L516.46 487.743L517.244 488.136C517.019 487.924 516.803 487.704 516.594 487.476Z" fill="#FAFAFA"/>
  <path fill-rule="evenodd" clip-rule="evenodd" d="M525.715 467.346C519.177 467.346 513.876 472.641 513.876 479.173C513.876 482.1 514.94 484.778 516.703 486.843C517.585 487.877 518.643 488.758 519.831 489.439C520.214 489.658 520.611 489.857 521.02 490.034C522.46 490.656 524.047 491.001 525.716 491.001C530.917 491.001 535.335 487.65 536.924 482.991C537.333 481.794 537.555 480.509 537.555 479.173C537.555 477.284 537.111 475.498 536.323 473.914L536.322 473.912C536.267 473.803 536.211 473.695 536.154 473.587L536.153 473.585C534.277 470.096 530.698 467.655 526.527 467.373C526.259 467.355 525.988 467.346 525.715 467.346ZM513.376 479.173C513.376 472.365 518.901 466.846 525.715 466.846C526.296 466.846 526.868 466.886 527.428 466.963C531.345 467.507 534.674 469.887 536.515 473.206C536.621 473.396 536.721 473.589 536.817 473.786C537.61 475.413 538.055 477.241 538.055 479.173C538.055 479.908 537.99 480.628 537.867 481.327C537.751 481.984 537.583 482.622 537.368 483.239C537.335 483.334 537.3 483.429 537.264 483.524C537.214 483.657 537.161 483.789 537.107 483.92C535.246 488.372 530.846 491.501 525.716 491.501C518.901 491.501 513.376 485.982 513.376 479.173Z" fill="#FAFAFA"/>
  <path fill-rule="evenodd" clip-rule="evenodd" d="M523.227 232.513L539.547 233.037C540.099 233.055 540.56 232.622 540.578 232.07L547.281 23.6063C547.299 23.0543 546.866 22.5925 546.314 22.5748L529.994 22.051L523.227 232.513Z" fill="#303030"/>
  <path fill-rule="evenodd" clip-rule="evenodd" d="M529.752 21.7931L546.322 22.3249C547.012 22.347 547.553 22.9243 547.531 23.6144L540.828 232.078C540.806 232.768 540.229 233.309 539.539 233.287L522.969 232.755L529.752 21.7931ZM530.236 22.3089L523.484 232.271L539.555 232.787C539.969 232.8 540.315 232.476 540.328 232.062L547.031 23.5983C547.045 23.1843 546.72 22.8379 546.306 22.8246L530.236 22.3089Z" fill="#FAFAFA"/>
  <path fill-rule="evenodd" clip-rule="evenodd" d="M521.376 232.704L528.159 21.7421L530.252 21.8093L523.468 232.771L521.376 232.704ZM521.892 232.22L522.985 232.255L529.736 22.293L528.643 22.2579L521.892 232.22Z" fill="#FAFAFA"/>
  <path d="M528.366 23.1081L521.674 231.225C521.666 231.48 521.452 231.68 521.197 231.672C520.942 231.664 520.742 231.451 520.75 231.196L527.442 23.0785C527.45 22.8234 527.664 22.6233 527.919 22.6315C528.174 22.6396 528.374 22.8531 528.366 23.1081Z" fill="#5A5A5A"/>
  <path fill-rule="evenodd" clip-rule="evenodd" d="M521.189 231.922C521.582 231.935 521.911 231.626 521.924 231.233L528.616 23.1162C528.628 22.7231 528.32 22.3942 527.927 22.3816C527.534 22.369 527.205 22.6774 527.192 23.0705L520.5 231.188C520.487 231.581 520.796 231.91 521.189 231.922ZM521.424 231.217C521.42 231.334 521.322 231.426 521.205 231.422C521.088 231.419 520.996 231.321 521 231.204L527.692 23.0865C527.696 22.9694 527.794 22.8776 527.911 22.8813C528.028 22.8851 528.12 22.983 528.116 23.1001L521.424 231.217Z" fill="#FAFAFA"/>
  <path d="M95.2068 652.804C94.9243 652.144 95.4083 651.41 96.1261 651.41H304.38C304.932 651.41 305.38 651.858 305.38 652.41V669.314C305.38 669.867 304.932 670.314 304.38 670.314H103.364C102.964 670.314 102.602 670.076 102.445 669.708L95.2068 652.804Z" fill="#303030"/>
  <path fill-rule="evenodd" clip-rule="evenodd" d="M94.977 652.902C94.6239 652.077 95.2289 651.16 96.1261 651.16H304.38C305.07 651.16 305.63 651.72 305.63 652.41V669.314C305.63 670.005 305.07 670.564 304.38 670.564H103.364C102.864 670.564 102.412 670.266 102.215 669.806L94.977 652.902ZM96.1261 651.66C95.5878 651.66 95.2247 652.211 95.4366 652.705L102.675 669.609C102.793 669.885 103.064 670.064 103.364 670.064H304.38C304.794 670.064 305.13 669.728 305.13 669.314V652.41C305.13 651.996 304.794 651.66 304.38 651.66H96.1261Z" fill="#FAFAFA"/>
  <path fill-rule="evenodd" clip-rule="evenodd" d="M308.651 647.938L181.851 480.496C181.518 480.056 181.604 479.429 182.045 479.096L186.402 475.803C186.842 475.47 187.47 475.557 187.803 475.997L314.604 643.439C314.612 643.45 314.621 643.462 314.629 643.474C312.205 644.322 310.134 645.92 308.694 647.99C308.679 647.973 308.665 647.956 308.651 647.938Z" fill="#303030"/>
  <path fill-rule="evenodd" clip-rule="evenodd" d="M186.251 475.604C186.802 475.188 187.586 475.296 188.002 475.846L314.803 643.288C314.814 643.302 314.825 643.317 314.835 643.332L315.021 643.602L314.782 643.686L314.712 643.71C313.557 644.114 312.484 644.692 311.523 645.413C310.51 646.173 309.623 647.092 308.899 648.133L308.832 648.228L308.715 648.396L308.505 648.153C308.487 648.132 308.469 648.111 308.452 648.089L181.652 480.647C181.235 480.097 181.343 479.313 181.894 478.897L182.841 478.181L185.167 476.423L186.251 475.604ZM187.604 476.148C187.354 475.818 186.883 475.753 186.552 476.003L182.196 479.296C181.865 479.545 181.8 480.015 182.05 480.345L308.687 647.57C310.079 645.682 311.998 644.205 314.227 643.355L187.604 476.148Z" fill="#FAFAFA"/>
  <path fill-rule="evenodd" clip-rule="evenodd" d="M305.13 651.16H307.377L307.281 651.482C306.959 652.557 306.786 653.696 306.786 654.876C306.786 661.408 312.087 666.704 318.626 666.704C325.164 666.704 330.465 661.408 330.465 654.876C330.465 653.972 330.363 653.092 330.171 652.246L330.025 651.606L330.56 651.987C331.692 652.795 332.436 654.12 332.436 655.611C332.436 663.836 325.806 670.459 317.574 670.459H305.13V651.16ZM305.63 651.66V669.959H317.574C325.53 669.959 331.936 663.559 331.936 655.611C331.936 654.538 331.501 653.56 330.798 652.845C330.908 653.506 330.965 654.184 330.965 654.876C330.965 661.685 325.44 667.204 318.626 667.204C311.811 667.204 306.286 661.685 306.286 654.876C306.286 653.764 306.434 652.686 306.711 651.66H305.63Z" fill="#FAFAFA"/>
  <path fill-rule="evenodd" clip-rule="evenodd" d="M318.626 643.049C317.28 643.049 315.987 643.273 314.782 643.686C313.6 644.091 312.503 644.678 311.523 645.413C310.479 646.196 309.569 647.148 308.832 648.228C307.541 650.122 306.786 652.411 306.786 654.876C306.786 661.408 312.087 666.704 318.626 666.704C325.164 666.704 330.465 661.408 330.465 654.876C330.465 648.344 325.164 643.049 318.626 643.049ZM306.286 654.876C306.286 648.067 311.811 642.549 318.626 642.549C325.44 642.549 330.965 648.067 330.965 654.876C330.965 661.685 325.44 667.204 318.626 667.204C311.811 667.204 306.286 661.685 306.286 654.876Z" fill="#FAFAFA"/>
  <path fill-rule="evenodd" clip-rule="evenodd" d="M163.976 451.88L164.299 451.908L182.767 242.29C182.821 242.286 182.877 242.286 182.933 242.291L199.79 243.773C200.34 243.821 200.747 244.307 200.698 244.857L182.394 452.624C182.346 453.174 181.86 453.581 181.31 453.533L164.453 452.051C164.276 452.035 164.113 451.974 163.976 451.88Z" fill="#303030"/>
  <path fill-rule="evenodd" clip-rule="evenodd" d="M182.747 242.041C182.816 242.035 182.885 242.036 182.955 242.042L199.812 243.524C200.5 243.584 201.008 244.191 200.947 244.879L182.643 452.646C182.583 453.334 181.976 453.842 181.288 453.782L175.463 453.27L164.604 452.315L164.432 452.3C164.21 452.28 164.006 452.204 163.834 452.086L163.05 451.547L164.072 451.637L182.536 242.057L182.747 242.041ZM164.559 451.809L181.332 453.284C181.745 453.32 182.109 453.015 182.145 452.602L200.449 244.835C200.486 244.422 200.181 244.058 199.768 244.022L182.995 242.547L164.559 451.809Z" fill="#FAFAFA"/>
  <path fill-rule="evenodd" clip-rule="evenodd" d="M163.004 452.045L181.528 241.787L183.05 241.921L164.527 452.179L163.004 452.045ZM163.546 451.591L164.072 451.637L182.508 242.375L181.982 242.329L163.546 451.591Z" fill="#FAFAFA"/>
  <path d="M181.693 242.749L163.361 450.84C163.337 451.106 163.102 451.304 162.835 451.28C162.569 451.257 162.372 451.021 162.395 450.755L180.728 242.665C180.751 242.398 180.986 242.201 181.253 242.224C181.52 242.248 181.717 242.483 181.693 242.749Z" fill="#5A5A5A"/>
  <path fill-rule="evenodd" clip-rule="evenodd" d="M162.813 451.529C163.218 451.565 163.574 451.266 163.61 450.862L181.943 242.771C181.978 242.367 181.679 242.011 181.275 241.975C180.871 241.94 180.514 242.238 180.479 242.643L162.146 450.733C162.11 451.137 162.409 451.494 162.813 451.529ZM163.112 450.818C163.1 450.947 162.987 451.042 162.857 451.031C162.728 451.02 162.633 450.906 162.644 450.777L180.977 242.686C180.988 242.557 181.102 242.462 181.231 242.473C181.36 242.484 181.456 242.598 181.444 242.728L163.112 450.818Z" fill="#FAFAFA"/>
  <path d="M665.193 672.186C665.186 671.951 665.372 671.754 665.607 671.748L669.02 671.649C669.255 671.642 669.452 671.828 669.459 672.063C669.465 672.299 669.28 672.495 669.044 672.502L665.632 672.601C665.396 672.608 665.2 672.422 665.193 672.186Z" fill="#5A5A5A"/>
  <path fill-rule="evenodd" clip-rule="evenodd" d="M665.607 671.748C665.372 671.754 665.186 671.951 665.193 672.186C665.2 672.422 665.396 672.608 665.632 672.601L669.044 672.502C669.28 672.495 669.465 672.299 669.459 672.063C669.452 671.828 669.255 671.642 669.02 671.649L665.607 671.748Z" fill="#FAFAFA"/>
  <path d="M94.2539 652.783C94.6863 652.595 95.1889 652.793 95.3765 653.226L101.83 668.103C102.018 668.535 101.819 669.038 101.387 669.225C100.955 669.413 100.452 669.215 100.264 668.782L93.8105 653.905C93.6229 653.473 93.8214 652.97 94.2539 652.783Z" fill="#5A5A5A"/>
  <path fill-rule="evenodd" clip-rule="evenodd" d="M94.1544 652.553C94.7135 652.311 95.3633 652.567 95.6059 653.126L102.06 668.003C102.302 668.562 102.046 669.212 101.487 669.455C100.927 669.697 100.278 669.441 100.035 668.882L93.5812 654.005C93.3386 653.446 93.5953 652.796 94.1544 652.553ZM95.1472 653.325C95.0145 653.02 94.6591 652.879 94.3534 653.012C94.0476 653.145 93.9072 653.5 94.0399 653.806L100.494 668.683C100.626 668.988 100.982 669.129 101.288 668.996C101.593 668.863 101.734 668.508 101.601 668.202L95.1472 653.325Z" fill="#FAFAFA"/>
  <path fill-rule="evenodd" clip-rule="evenodd" d="M527.646 256.625C529.485 258.39 531.882 259.579 534.547 259.902V466.095C534.547 466.514 534.289 466.873 533.924 467.022C533.296 466.57 532.624 466.162 531.91 465.803C530.303 464.998 528.411 465.327 527.161 466.483C527.111 466.364 527.083 466.233 527.083 466.095V257.524C527.083 257.129 527.312 256.787 527.646 256.625Z" fill="#303030"/>
  <path fill-rule="evenodd" clip-rule="evenodd" d="M527.693 256.324L527.74 256.369L527.819 256.445C529.62 258.173 531.968 259.337 534.577 259.653L534.684 259.666L534.797 259.68V466.095C534.797 466.619 534.475 467.067 534.019 467.253L533.891 467.305L533.778 467.224C533.698 467.167 533.616 467.11 533.534 467.053C532.988 466.677 532.408 466.333 531.797 466.027C530.726 465.49 529.52 465.489 528.489 465.922C528.066 466.099 527.673 466.35 527.33 466.666L527.285 466.708L527.069 466.908L526.93 466.58C526.868 466.43 526.833 466.267 526.833 466.095V257.524C526.833 257.03 527.12 256.603 527.536 256.4L527.693 256.324ZM527.614 256.939C527.442 257.077 527.333 257.288 527.333 257.524V466.014C528.644 465.026 530.459 464.796 532.021 465.58C532.701 465.921 533.343 466.306 533.946 466.73C534.157 466.597 534.297 466.362 534.297 466.095V260.121C531.732 259.763 529.42 258.619 527.614 256.939Z" fill="#FAFAFA"/>
  <path fill-rule="evenodd" clip-rule="evenodd" d="M536.017 236.085C529.479 236.085 524.178 241.381 524.178 247.913C524.178 248.024 524.18 248.134 524.183 248.244C524.271 251.426 525.616 254.294 527.74 256.369C529.576 258.163 531.994 259.365 534.684 259.666C535.122 259.715 535.567 259.741 536.017 259.741C542.556 259.741 547.857 254.445 547.857 247.913C547.857 241.381 542.556 236.085 536.017 236.085ZM523.678 247.913C523.678 241.104 529.203 235.585 536.017 235.585C542.832 235.585 548.357 241.104 548.357 247.913C548.357 254.722 542.832 260.241 536.017 260.241C529.203 260.241 523.678 254.722 523.678 247.913Z" fill="#FAFAFA"/>
  <path fill-rule="evenodd" clip-rule="evenodd" d="M165.405 451.755L175.921 452.679L176.174 456.129L176.016 456.143L175.927 456.15C172.89 456.402 170.179 457.799 168.227 459.908C166.275 462.017 165.082 464.838 165.082 467.936C165.082 467.989 165.083 468.042 165.083 468.095C165.083 468.109 165.084 468.123 165.084 468.138L165.094 468.739L164.661 468.322C164.446 468.116 164.304 467.833 164.28 467.513L163.229 453.167C163.178 452.479 163.695 451.88 164.384 451.829L165.405 451.755ZM165.402 452.256L164.604 452.315L164.42 452.328C164.007 452.358 163.697 452.718 163.727 453.131L164.692 466.284C165.444 460.674 169.973 456.259 175.639 455.675L175.463 453.27L175.453 453.14L165.402 452.256Z" fill="#FAFAFA"/>
  <path fill-rule="evenodd" clip-rule="evenodd" d="M176.921 456.108C176.617 456.108 176.315 456.12 176.016 456.143C172.943 456.375 170.198 457.779 168.227 459.908C166.275 462.017 165.082 464.838 165.082 467.936C165.082 467.989 165.083 468.042 165.083 468.095C165.168 474.554 170.435 479.764 176.921 479.764C179.078 479.764 181.1 479.188 182.841 478.181C183.688 477.691 184.469 477.1 185.167 476.423C187.383 474.274 188.76 471.266 188.76 467.936C188.76 461.404 183.46 456.108 176.921 456.108ZM164.582 467.936C164.582 467.376 164.619 466.825 164.692 466.284C165.5 460.257 170.667 455.608 176.921 455.608C183.735 455.608 189.26 461.128 189.26 467.936C189.26 474.745 183.735 480.264 176.921 480.264C170.106 480.264 164.582 474.745 164.582 467.936Z" fill="#FAFAFA"/>
  <path d="M384.075 365V351H386.035L386.175 353.184C386.679 352.325 387.332 351.7 388.135 351.308C388.956 350.916 389.796 350.72 390.655 350.72C391.644 350.72 392.577 350.944 393.455 351.392C394.332 351.84 395.004 352.531 395.471 353.464C395.769 352.829 396.189 352.316 396.731 351.924C397.272 351.513 397.86 351.215 398.495 351.028C399.148 350.823 399.764 350.72 400.343 350.72C401.239 350.72 402.088 350.907 402.891 351.28C403.712 351.653 404.384 352.232 404.907 353.016C405.429 353.8 405.691 354.808 405.691 356.04V365H403.451V356.264C403.451 354.995 403.133 354.08 402.499 353.52C401.864 352.96 401.08 352.68 400.147 352.68C399.419 352.68 398.737 352.857 398.103 353.212C397.468 353.567 396.955 354.089 396.563 354.78C396.189 355.471 396.003 356.32 396.003 357.328V365H393.763V356.264C393.763 354.995 393.445 354.08 392.811 353.52C392.176 352.96 391.392 352.68 390.459 352.68C389.843 352.68 389.208 352.848 388.555 353.184C387.92 353.501 387.388 354.015 386.959 354.724C386.529 355.433 386.315 356.367 386.315 357.524V365H384.075Z" fill="white"/>
  <path d="M357.387 365V351H359.347L359.487 353.184C359.991 352.325 360.645 351.7 361.447 351.308C362.269 350.916 363.109 350.72 363.967 350.72C364.957 350.72 365.89 350.944 366.767 351.392C367.645 351.84 368.317 352.531 368.783 353.464C369.082 352.829 369.502 352.316 370.043 351.924C370.585 351.513 371.173 351.215 371.807 351.028C372.461 350.823 373.077 350.72 373.655 350.72C374.551 350.72 375.401 350.907 376.203 351.28C377.025 351.653 377.697 352.232 378.219 353.016C378.742 353.8 379.003 354.808 379.003 356.04V365H376.763V356.264C376.763 354.995 376.446 354.08 375.811 353.52C375.177 352.96 374.393 352.68 373.459 352.68C372.731 352.68 372.05 352.857 371.415 353.212C370.781 353.567 370.267 354.089 369.875 354.78C369.502 355.471 369.315 356.32 369.315 357.328V365H367.075V356.264C367.075 354.995 366.758 354.08 366.123 353.52C365.489 352.96 364.705 352.68 363.771 352.68C363.155 352.68 362.521 352.848 361.867 353.184C361.233 353.501 360.701 354.015 360.271 354.724C359.842 355.433 359.627 356.367 359.627 357.524V365H357.387Z" fill="white"/>
  <path d="M393.203 325V321.48C395.017 320.349 396.563 319.293 397.843 318.312C399.123 317.331 400.158 316.403 400.947 315.528C401.758 314.653 402.355 313.821 402.739 313.032C403.123 312.243 403.315 311.475 403.315 310.728C403.315 309.917 403.07 309.245 402.579 308.712C402.11 308.157 401.406 307.88 400.467 307.88C399.465 307.88 398.686 308.253 398.131 309C397.577 309.725 397.278 310.792 397.235 312.2L392.531 310.76C392.574 309.181 392.947 307.859 393.651 306.792C394.377 305.725 395.358 304.925 396.595 304.392C397.833 303.837 399.241 303.56 400.819 303.56C402.206 303.56 403.401 303.763 404.403 304.168C405.427 304.552 406.259 305.075 406.899 305.736C407.539 306.376 408.009 307.101 408.307 307.912C408.627 308.701 408.787 309.512 408.787 310.344C408.787 311.709 408.435 312.989 407.731 314.184C407.027 315.357 406.003 316.499 404.659 317.608C403.337 318.696 401.726 319.795 399.827 320.904V320.936C400.19 320.915 400.617 320.893 401.107 320.872C401.598 320.851 402.11 320.84 402.643 320.84C403.177 320.819 403.657 320.808 404.083 320.808H409.043V325H393.203Z" fill="white"/>
  <path d="M382.509 303.56C383.639 303.56 384.685 303.709 385.645 304.008C386.626 304.307 387.479 304.797 388.205 305.48C388.93 306.163 389.474 307.08 389.837 308.232L385.357 310.344C385.143 309.597 384.77 309.011 384.237 308.584C383.725 308.136 383.031 307.912 382.157 307.912C381.559 307.912 381.005 308.061 380.493 308.36C380.002 308.637 379.575 309.043 379.213 309.576C378.85 310.109 378.573 310.76 378.381 311.528C378.21 312.296 378.125 313.16 378.125 314.12C378.125 314.184 378.125 314.259 378.125 314.344C378.125 314.408 378.125 314.504 378.125 314.632L378.189 314.824C378.445 314.184 378.839 313.651 379.373 313.224C379.927 312.776 380.557 312.435 381.261 312.2C381.965 311.965 382.669 311.848 383.373 311.848C384.674 311.848 385.837 312.104 386.861 312.616C387.885 313.128 388.685 313.864 389.261 314.824C389.858 315.763 390.157 316.904 390.157 318.248C390.157 319.699 389.826 320.957 389.165 322.024C388.503 323.069 387.586 323.88 386.413 324.456C385.239 325.032 383.842 325.32 382.221 325.32C380.407 325.32 378.807 324.925 377.421 324.136C376.055 323.325 374.989 322.131 374.221 320.552C373.474 318.952 373.101 316.979 373.101 314.632C373.101 312.115 373.517 310.045 374.349 308.424C375.181 306.803 376.301 305.587 377.709 304.776C379.138 303.965 380.738 303.56 382.509 303.56ZM382.125 315.56C381.57 315.56 381.058 315.677 380.589 315.912C380.141 316.125 379.778 316.445 379.501 316.872C379.245 317.299 379.117 317.8 379.117 318.376C379.117 318.931 379.255 319.421 379.533 319.848C379.81 320.275 380.173 320.605 380.621 320.84C381.069 321.075 381.57 321.192 382.125 321.192C383.085 321.192 383.821 320.947 384.333 320.456C384.866 319.965 385.133 319.272 385.133 318.376C385.133 317.779 385.015 317.277 384.781 316.872C384.546 316.445 384.205 316.125 383.757 315.912C383.33 315.677 382.786 315.56 382.125 315.56Z" fill="white"/>
  <path d="M362.228 325.32C359.966 325.32 358.078 324.883 356.564 324.008C355.07 323.112 354.036 321.811 353.46 320.104L358.516 317.928C358.622 318.696 358.814 319.315 359.092 319.784C359.39 320.232 359.785 320.563 360.276 320.776C360.766 320.968 361.342 321.064 362.004 321.064C362.601 321.064 363.102 320.968 363.508 320.776C363.934 320.563 364.265 320.264 364.5 319.88C364.734 319.496 364.852 319.037 364.852 318.504C364.852 317.949 364.734 317.501 364.5 317.16C364.286 316.819 363.966 316.573 363.54 316.424C363.134 316.275 362.633 316.2 362.036 316.2C361.758 316.2 361.502 316.211 361.268 316.232C361.033 316.232 360.766 316.253 360.468 316.296V312.712C360.638 312.733 360.809 312.755 360.98 312.776C361.15 312.776 361.353 312.776 361.588 312.776C362.59 312.776 363.305 312.573 363.732 312.168C364.18 311.741 364.404 311.08 364.404 310.184C364.404 309.416 364.18 308.829 363.732 308.424C363.305 308.019 362.697 307.816 361.908 307.816C361.076 307.816 360.393 308.04 359.86 308.488C359.326 308.915 358.985 309.651 358.836 310.696L354.004 309.032C354.238 307.859 354.74 306.867 355.508 306.056C356.276 305.245 357.236 304.627 358.388 304.2C359.561 303.773 360.852 303.56 362.26 303.56C363.881 303.56 365.246 303.795 366.356 304.264C367.465 304.733 368.308 305.405 368.884 306.28C369.46 307.155 369.748 308.179 369.748 309.352C369.748 310.269 369.598 311.037 369.3 311.656C369.022 312.275 368.66 312.776 368.212 313.16C367.785 313.544 367.348 313.832 366.9 314.024C366.452 314.195 366.078 314.301 365.78 314.344V314.44C366.164 314.44 366.601 314.515 367.092 314.664C367.582 314.813 368.062 315.059 368.532 315.4C369.001 315.72 369.385 316.168 369.684 316.744C370.004 317.32 370.164 318.035 370.164 318.888C370.164 320.211 369.812 321.352 369.108 322.312C368.425 323.272 367.486 324.019 366.292 324.552C365.097 325.064 363.742 325.32 362.228 325.32Z" fill="white"/>
  <path d="M61.0747 508V494H63.0347L63.1747 496.184C63.6787 495.325 64.3321 494.7 65.1348 494.308C65.9561 493.916 66.7961 493.72 67.6548 493.72C68.6441 493.72 69.5774 493.944 70.4548 494.392C71.3321 494.84 72.0041 495.531 72.4707 496.464C72.7694 495.829 73.1894 495.316 73.7308 494.924C74.2721 494.513 74.8601 494.215 75.4948 494.028C76.1481 493.823 76.7641 493.72 77.3428 493.72C78.2388 493.72 79.0881 493.907 79.8907 494.28C80.7121 494.653 81.3841 495.232 81.9068 496.016C82.4294 496.8 82.6908 497.808 82.6908 499.04V508H80.4507V499.264C80.4507 497.995 80.1334 497.08 79.4987 496.52C78.8641 495.96 78.0801 495.68 77.1468 495.68C76.4188 495.68 75.7374 495.857 75.1028 496.212C74.4681 496.567 73.9548 497.089 73.5628 497.78C73.1894 498.471 73.0027 499.32 73.0027 500.328V508H70.7627V499.264C70.7627 497.995 70.4454 497.08 69.8107 496.52C69.1761 495.96 68.3921 495.68 67.4587 495.68C66.8427 495.68 66.2081 495.848 65.5547 496.184C64.9201 496.501 64.3881 497.015 63.9587 497.724C63.5294 498.433 63.3148 499.367 63.3148 500.524V508H61.0747Z" fill="white"/>
  <path d="M34.3872 508V494H36.3473L36.4873 496.184C36.9913 495.325 37.6446 494.7 38.4473 494.308C39.2686 493.916 40.1086 493.72 40.9673 493.72C41.9566 493.72 42.8899 493.944 43.7673 494.392C44.6446 494.84 45.3166 495.531 45.7832 496.464C46.0819 495.829 46.5019 495.316 47.0433 494.924C47.5846 494.513 48.1726 494.215 48.8073 494.028C49.4606 493.823 50.0766 493.72 50.6553 493.72C51.5513 493.72 52.4006 493.907 53.2033 494.28C54.0246 494.653 54.6966 495.232 55.2192 496.016C55.7419 496.8 56.0033 497.808 56.0033 499.04V508H53.7633V499.264C53.7633 497.995 53.4459 497.08 52.8113 496.52C52.1766 495.96 51.3926 495.68 50.4593 495.68C49.7313 495.68 49.0499 495.857 48.4153 496.212C47.7806 496.567 47.2673 497.089 46.8753 497.78C46.5019 498.471 46.3153 499.32 46.3153 500.328V508H44.0752V499.264C44.0752 497.995 43.7579 497.08 43.1232 496.52C42.4886 495.96 41.7046 495.68 40.7712 495.68C40.1552 495.68 39.5206 495.848 38.8672 496.184C38.2326 496.501 37.7006 497.015 37.2712 497.724C36.8419 498.433 36.6273 499.367 36.6273 500.524V508H34.3872Z" fill="white"/>
  <path d="M78.4147 446.56C79.5454 446.56 80.5908 446.709 81.5508 447.008C82.5321 447.307 83.3854 447.797 84.1107 448.48C84.8361 449.163 85.3801 450.08 85.7428 451.232L81.2627 453.344C81.0494 452.597 80.6761 452.011 80.1427 451.584C79.6307 451.136 78.9374 450.912 78.0628 450.912C77.4654 450.912 76.9108 451.061 76.3988 451.36C75.9081 451.637 75.4814 452.043 75.1187 452.576C74.7561 453.109 74.4788 453.76 74.2868 454.528C74.1161 455.296 74.0307 456.16 74.0307 457.12C74.0307 457.184 74.0307 457.259 74.0307 457.344C74.0307 457.408 74.0307 457.504 74.0307 457.632L74.0947 457.824C74.3507 457.184 74.7454 456.651 75.2787 456.224C75.8334 455.776 76.4627 455.435 77.1667 455.2C77.8707 454.965 78.5747 454.848 79.2787 454.848C80.5801 454.848 81.7428 455.104 82.7668 455.616C83.7908 456.128 84.5907 456.864 85.1667 457.824C85.7641 458.763 86.0628 459.904 86.0628 461.248C86.0628 462.699 85.7321 463.957 85.0707 465.024C84.4094 466.069 83.4921 466.88 82.3187 467.456C81.1454 468.032 79.7481 468.32 78.1267 468.32C76.3134 468.32 74.7134 467.925 73.3268 467.136C71.9614 466.325 70.8947 465.131 70.1267 463.552C69.3801 461.952 69.0067 459.979 69.0067 457.632C69.0067 455.115 69.4227 453.045 70.2547 451.424C71.0867 449.803 72.2067 448.587 73.6147 447.776C75.0441 446.965 76.6441 446.56 78.4147 446.56ZM78.0307 458.56C77.4761 458.56 76.9641 458.677 76.4948 458.912C76.0468 459.125 75.6841 459.445 75.4068 459.872C75.1508 460.299 75.0228 460.8 75.0228 461.376C75.0228 461.931 75.1614 462.421 75.4388 462.848C75.7161 463.275 76.0787 463.605 76.5267 463.84C76.9747 464.075 77.4761 464.192 78.0307 464.192C78.9907 464.192 79.7268 463.947 80.2388 463.456C80.7721 462.965 81.0387 462.272 81.0387 461.376C81.0387 460.779 80.9214 460.277 80.6868 459.872C80.4521 459.445 80.1108 459.125 79.6628 458.912C79.2361 458.677 78.6921 458.56 78.0307 458.56Z" fill="white"/>
  <path d="M57.9665 468.32C56.1318 468.32 54.5318 467.968 53.1665 467.264C51.8225 466.539 50.6918 465.365 49.7745 463.744L54.6065 461.344C54.8412 462.197 55.2145 462.88 55.7265 463.392C56.2598 463.904 57.0492 464.16 58.0945 464.16C58.7558 464.16 59.3212 464.043 59.7905 463.808C60.2598 463.573 60.6225 463.232 60.8785 462.784C61.1558 462.315 61.2945 461.749 61.2945 461.088C61.2945 460.448 61.1665 459.915 60.9105 459.488C60.6758 459.061 60.3238 458.741 59.8545 458.528C59.3852 458.293 58.7985 458.176 58.0945 458.176C57.5825 458.176 57.1238 458.229 56.7185 458.336C56.3132 458.421 55.9398 458.56 55.5985 458.752C55.2785 458.923 54.9798 459.147 54.7025 459.424L50.5425 458.656L51.8865 446.88H65.1985V451.136H55.8865L55.3425 455.36L55.2465 455.872H55.2785C55.7052 455.381 56.3025 455.008 57.0705 454.752C57.8385 454.496 58.6918 454.368 59.6305 454.368C61.0172 454.368 62.2012 454.645 63.1825 455.2C64.1638 455.755 64.9212 456.512 65.4545 457.472C65.9878 458.432 66.2545 459.531 66.2545 460.768C66.2545 462.069 66.0305 463.2 65.5825 464.16C65.1558 465.099 64.5478 465.877 63.7585 466.496C62.9905 467.115 62.1052 467.573 61.1025 467.872C60.1212 468.171 59.0758 468.32 57.9665 468.32Z" fill="white"/>
  <path d="M31.672 468V464.48C33.4853 463.349 35.032 462.293 36.312 461.312C37.592 460.331 38.6267 459.403 39.416 458.528C40.2267 457.653 40.824 456.821 41.208 456.032C41.592 455.243 41.784 454.475 41.784 453.728C41.784 452.917 41.5387 452.245 41.048 451.712C40.5787 451.157 39.8747 450.88 38.936 450.88C37.9333 450.88 37.1547 451.253 36.6 452C36.0453 452.725 35.7467 453.792 35.704 455.2L31 453.76C31.0427 452.181 31.416 450.859 32.12 449.792C32.8453 448.725 33.8267 447.925 35.064 447.392C36.3013 446.837 37.7093 446.56 39.288 446.56C40.6747 446.56 41.8693 446.763 42.872 447.168C43.896 447.552 44.728 448.075 45.368 448.736C46.008 449.376 46.4773 450.101 46.776 450.912C47.096 451.701 47.256 452.512 47.256 453.344C47.256 454.709 46.904 455.989 46.2 457.184C45.496 458.357 44.472 459.499 43.128 460.608C41.8053 461.696 40.1947 462.795 38.296 463.904V463.936C38.6587 463.915 39.0853 463.893 39.576 463.872C40.0667 463.851 40.5787 463.84 41.112 463.84C41.6453 463.819 42.1253 463.808 42.552 463.808H47.512V468H31.672Z" fill="white"/>
  <path fill-rule="evenodd" clip-rule="evenodd" d="M378.59 21.2929C378.981 20.9024 379.614 20.9024 380.004 21.2929L386.368 27.6569C386.759 28.0474 386.759 28.6805 386.368 29.0711C385.978 29.4616 385.345 29.4616 384.954 29.0711L380.297 24.4142V273.5H378.297V24.4142L373.64 29.0711C373.25 29.4616 372.617 29.4616 372.226 29.0711C371.836 28.6805 371.836 28.0474 372.226 27.6569L378.59 21.2929ZM386.368 673.313L380.004 679.677C379.614 680.068 378.981 680.068 378.59 679.677L372.226 673.313C371.836 672.923 371.836 672.29 372.226 671.899C372.617 671.509 373.25 671.509 373.64 671.899L378.297 676.556V399H380.297V676.556L384.954 671.899C385.345 671.509 385.978 671.509 386.368 671.899C386.759 672.29 386.759 672.923 386.368 673.313Z" fill="white"/>
  <path fill-rule="evenodd" clip-rule="evenodd" d="M55.5901 240.793C55.9806 240.402 56.6138 240.402 57.0043 240.793L63.3683 247.157C63.7588 247.547 63.7588 248.181 63.3683 248.571C62.9778 248.962 62.3446 248.962 61.9541 248.571L57.2972 243.914L57.2972 415H55.2972L55.2972 243.914L50.6404 248.571C50.2498 248.962 49.6167 248.962 49.2262 248.571C48.8356 248.181 48.8356 247.547 49.2262 247.157L55.5901 240.793ZM63.3683 673.313L57.0043 679.677C56.6138 680.068 55.9807 680.068 55.5901 679.677L49.2262 673.313C48.8356 672.923 48.8356 672.289 49.2262 671.899C49.6167 671.508 50.2499 671.508 50.6404 671.899L55.2972 676.556V528.5H57.2972V676.556L61.9541 671.899C62.3446 671.508 62.9778 671.508 63.3683 671.899C63.7588 672.289 63.7588 672.923 63.3683 673.313Z" fill="white"/>
  <path d="M182.841 478.181L185.167 476.423C187.383 474.274 188.76 471.266 188.76 467.936C188.76 461.404 183.46 456.108 176.921 456.108C176.617 456.108 176.315 456.12 176.016 456.143L175.927 456.15C172.89 456.402 170.179 457.799 168.227 459.908C166.275 462.017 165.082 464.838 165.082 467.936C165.082 467.989 165.083 468.042 165.083 468.095C165.168 474.554 170.435 479.764 176.921 479.764C179.078 479.764 181.1 479.188 182.841 478.181Z" fill="#303030"/>
  <path fill-rule="evenodd" clip-rule="evenodd" d="M519.831 489.439L521.02 490.034C521.039 490.042 521.058 490.051 521.077 490.059C522.501 490.665 524.069 491.001 525.716 491.001C530.758 491.001 535.063 487.852 536.77 483.415L536.815 483.296C536.836 483.239 536.857 483.182 536.877 483.124L536.924 482.991L537.044 482.654L537.391 483.174C537.595 482.578 537.755 481.961 537.867 481.327C537.99 480.628 538.055 479.908 538.055 479.173C538.055 477.241 537.61 475.413 536.817 473.786C536.721 473.589 536.621 473.396 536.515 473.206L536.1 473.485L536.153 473.585C534.284 470.109 530.726 467.674 526.575 467.376L526.527 467.373C526.259 467.355 525.988 467.346 525.715 467.346C519.177 467.346 513.876 472.641 513.876 479.173C513.876 482.1 514.94 484.778 516.703 486.843L516.727 486.871C517.589 487.874 518.616 488.732 519.767 489.402C519.788 489.414 519.809 489.426 519.831 489.439Z" fill="#303030"/>
  <path d="M535.112 236.119C528.997 236.581 524.178 241.685 524.178 247.913C524.178 248.02 524.18 248.127 524.183 248.234L524.183 248.244C524.271 251.426 525.616 254.294 527.74 256.369L527.819 256.445C529.62 258.173 531.968 259.337 534.577 259.653L534.684 259.666C535.122 259.715 535.567 259.741 536.017 259.741C542.556 259.741 547.857 254.445 547.857 247.913C547.857 241.381 542.556 236.085 536.017 236.085C535.713 236.085 535.411 236.097 535.112 236.119Z" fill="#303030"/>
  <path d="M314.782 643.686L314.712 643.71C313.557 644.114 312.484 644.692 311.523 645.413C310.51 646.173 309.623 647.092 308.899 648.133L308.832 648.228C308.159 649.216 307.632 650.311 307.281 651.482C306.959 652.557 306.786 653.696 306.786 654.876C306.786 661.408 312.087 666.704 318.626 666.704C325.164 666.704 330.465 661.408 330.465 654.876C330.465 653.972 330.363 653.092 330.171 652.246C328.974 646.98 324.26 643.049 318.626 643.049C317.28 643.049 315.987 643.273 314.782 643.686Z" fill="#303030"/>
  <path d="M588.035 559.151C588.237 559.453 588.641 559.542 588.95 559.352L589.907 558.764L589.908 558.763L589.91 558.762L589.912 558.761L593.046 556.69L540.146 477.288C540.424 479.926 539.996 482.671 538.768 485.24L588.035 559.151Z" fill="#303030"/>
  <path d="M590.534 559.128L593.407 557.231L668.776 670.358C669.07 670.799 668.764 671.392 668.234 671.407L665.311 671.492C665.078 671.498 664.858 671.384 664.729 671.19L590.534 559.128Z" fill="#303030"/>
  <path d="M305.63 651.66V669.959H317.574C325.53 669.959 331.936 663.559 331.936 655.611C331.936 654.538 331.501 653.56 330.798 652.845C330.908 653.506 330.965 654.184 330.965 654.876C330.965 661.685 325.44 667.204 318.626 667.204C311.811 667.204 306.286 661.685 306.286 654.876C306.286 653.764 306.434 652.686 306.711 651.66H305.63Z" fill="#303030"/>
  <path d="M175.463 453.27L164.604 452.315L164.42 452.328C164.007 452.358 163.697 452.718 163.727 453.131L164.692 466.284C165.444 460.674 169.973 456.259 175.639 455.675L175.463 453.27Z" fill="#303030"/>
  <path d="M522.889 232.752L523.85 245.855C524.766 240.409 529.255 236.175 534.826 235.642L534.642 233.129L523.468 232.771L522.969 232.755L522.889 232.752Z" fill="#303030"/>
  <path d="M532.247 495.657C532.27 495.668 532.291 495.68 532.313 495.692L532.83 495.951L538.115 485.433L538.189 485.286C538.193 485.277 538.197 485.269 538.202 485.26C541.446 478.772 539.342 471.052 533.534 467.053C532.988 466.677 532.408 466.333 531.797 466.027C530.726 465.49 529.52 465.489 528.489 465.922C528.066 466.099 527.673 466.35 527.33 466.666L527.285 466.708C527.214 466.776 527.145 466.847 527.079 466.92C527.196 466.933 527.312 466.947 527.428 466.963C531.345 467.507 534.674 469.887 536.515 473.206L536.518 473.204L536.647 473.45C536.671 473.496 536.695 473.541 536.718 473.587L536.819 473.785L536.817 473.786C537.61 475.413 538.055 477.241 538.055 479.173C538.055 479.908 537.99 480.628 537.867 481.327C537.755 481.961 537.595 482.578 537.391 483.174L537.368 483.239C537.335 483.334 537.3 483.429 537.264 483.524L537.113 483.93L537.107 483.92C535.246 488.372 530.846 491.501 525.716 491.501C524.991 491.501 524.282 491.439 523.591 491.319L528.439 493.75L532.247 495.657Z" fill="#303030"/>
</svg>