<svg xmlns="http://www.w3.org/2000/svg" width="780" height="700" viewBox="0 0 780 700" fill="none">
  <path d="M65.376 109.797C65.376 105.491 68.8666 102 73.1725 102H677.835C682.141 102 685.632 105.491 685.632 109.797V541.203C685.632 545.509 682.141 549 677.835 549H73.1725C68.8666 549 65.376 545.509 65.376 541.203V109.797Z" fill="#838383"/>
  <path d="M67.1086 109.797C67.1086 106.447 69.8235 103.733 73.1725 103.733H677.835C681.184 103.733 683.899 106.447 683.899 109.797V490.093H67.1086V109.797Z" fill="black"/>
  <path d="M77.5039 114.128H673.504V450.244H77.5039V114.128Z" fill="#1A1A1A"/>
  <path d="M67.1086 490.093H683.899V541.203C683.899 544.553 681.184 547.267 677.835 547.267H73.1725C69.8235 547.267 67.1086 544.553 67.1086 541.203V490.093Z" fill="#4D4D4D"/>
  <path d="M94.7662 520.797C100.127 520.797 104.188 518.823 106.354 515.395L100.993 512.954C99.7838 514.893 97.636 515.97 94.9647 515.97C91.3188 515.97 88.9544 514.229 88.7017 511.429H106.805V509.778C106.805 508.27 106.588 506.906 106.155 505.686H99.4048C99.6214 506.206 99.7477 506.799 99.7477 507.463V507.588H88.6656C88.7197 506.888 88.8822 506.242 89.1349 505.686H83.7201V516.257C85.8319 519.182 89.6763 520.797 94.7662 520.797Z" fill="#FAFAFA"/>
  <path d="M94.4413 523.164C89.568 523.164 85.8138 524.851 83.7201 527.866V530.845H88.828C89.4056 528.566 91.3729 527.22 94.351 527.22C97.275 527.22 99.2784 528.566 99.6755 530.845H106.426C105.199 525.964 100.993 523.164 94.4413 523.164Z" fill="#FAFAFA"/>
  <path fill-rule="evenodd" clip-rule="evenodd" d="M92.8468 129.986C92.6905 129.456 92.9932 128.9 93.5229 128.744L102.155 126.196C102.685 126.04 103.241 126.342 103.397 126.872C103.553 127.402 103.251 127.958 102.721 128.114L96.4044 129.978L333.118 258.815L332.162 260.571L95.4483 131.735L97.3124 138.052C97.4687 138.581 97.166 139.137 96.6363 139.294C96.1066 139.45 95.5505 139.147 95.3942 138.618L92.8468 129.986ZM655.096 427.146L657.644 435.778C657.8 436.307 657.498 436.864 656.968 437.02L648.336 439.567C647.806 439.724 647.25 439.421 647.094 438.891C646.937 438.362 647.24 437.805 647.77 437.649L654.086 435.785L430.891 314.307L431.847 312.55L655.042 434.028L653.178 427.712C653.022 427.182 653.325 426.626 653.854 426.47C654.384 426.313 654.94 426.616 655.096 427.146Z" fill="white"/>
  <path d="M413.95 279.533C414.398 279.533 414.772 279.654 415.07 279.897C415.388 280.121 415.63 280.438 415.798 280.849C415.966 281.241 416.05 281.707 416.05 282.249C416.05 282.865 415.938 283.471 415.714 284.069C415.509 284.666 415.182 285.217 414.734 285.721C414.286 286.225 413.708 286.645 412.998 286.981L411.822 285.889C412.326 285.721 412.765 285.487 413.138 285.189C413.53 284.89 413.848 284.554 414.09 284.181C414.333 283.807 414.492 283.425 414.566 283.033L414.454 282.977C414.38 283.033 414.286 283.079 414.174 283.117C414.062 283.154 413.894 283.173 413.67 283.173C413.446 283.173 413.213 283.107 412.97 282.977C412.746 282.846 412.55 282.659 412.382 282.417C412.214 282.155 412.13 281.819 412.13 281.409C412.13 281.073 412.214 280.765 412.382 280.485C412.55 280.186 412.765 279.953 413.026 279.785C413.306 279.617 413.614 279.533 413.95 279.533ZM419.214 279.533C419.662 279.533 420.036 279.654 420.334 279.897C420.652 280.121 420.894 280.438 421.062 280.849C421.23 281.241 421.314 281.707 421.314 282.249C421.314 282.865 421.202 283.471 420.978 284.069C420.773 284.666 420.446 285.217 419.998 285.721C419.55 286.225 418.972 286.645 418.262 286.981L417.086 285.889C417.59 285.721 418.029 285.487 418.402 285.189C418.794 284.89 419.112 284.554 419.354 284.181C419.597 283.807 419.756 283.425 419.83 283.033L419.718 282.977C419.644 283.033 419.55 283.079 419.438 283.117C419.326 283.154 419.158 283.173 418.934 283.173C418.71 283.173 418.477 283.107 418.234 282.977C418.01 282.846 417.814 282.659 417.646 282.417C417.478 282.155 417.394 281.819 417.394 281.409C417.394 281.073 417.478 280.765 417.646 280.485C417.814 280.186 418.029 279.953 418.29 279.785C418.57 279.617 418.878 279.533 419.214 279.533Z" fill="white"/>
  <path d="M400.411 275.013C401.683 275.013 402.859 275.181 403.939 275.517C405.043 275.853 406.003 276.405 406.819 277.173C407.635 277.941 408.247 278.973 408.655 280.269L403.615 282.645C403.375 281.805 402.955 281.145 402.355 280.665C401.779 280.161 400.999 279.909 400.015 279.909C399.343 279.909 398.719 280.077 398.143 280.413C397.591 280.725 397.111 281.181 396.703 281.781C396.295 282.381 395.983 283.113 395.767 283.977C395.575 284.841 395.479 285.813 395.479 286.893C395.479 286.965 395.479 287.049 395.479 287.145C395.479 287.217 395.479 287.325 395.479 287.469L395.551 287.685C395.839 286.965 396.283 286.365 396.883 285.885C397.507 285.381 398.215 284.997 399.007 284.733C399.799 284.469 400.591 284.337 401.383 284.337C402.847 284.337 404.155 284.625 405.307 285.201C406.459 285.777 407.359 286.605 408.007 287.685C408.679 288.741 409.015 290.025 409.015 291.537C409.015 293.169 408.643 294.585 407.899 295.785C407.155 296.961 406.123 297.873 404.803 298.521C403.483 299.169 401.911 299.493 400.087 299.493C398.047 299.493 396.247 299.049 394.687 298.161C393.151 297.249 391.951 295.905 391.087 294.129C390.247 292.329 389.827 290.109 389.827 287.469C389.827 284.637 390.295 282.309 391.231 280.485C392.167 278.661 393.427 277.293 395.011 276.381C396.619 275.469 398.419 275.013 400.411 275.013ZM399.979 288.513C399.355 288.513 398.779 288.645 398.251 288.909C397.747 289.149 397.339 289.509 397.027 289.989C396.739 290.469 396.595 291.033 396.595 291.681C396.595 292.305 396.751 292.857 397.063 293.337C397.375 293.817 397.783 294.189 398.287 294.453C398.791 294.717 399.355 294.849 399.979 294.849C401.059 294.849 401.887 294.573 402.463 294.021C403.063 293.469 403.363 292.689 403.363 291.681C403.363 291.009 403.231 290.445 402.967 289.989C402.703 289.509 402.319 289.149 401.815 288.909C401.335 288.645 400.723 288.513 399.979 288.513Z" fill="white"/>
  <path d="M383.088 292.941C384.216 292.941 385.092 293.229 385.716 293.805C386.364 294.381 386.688 295.185 386.688 296.217C386.688 297.225 386.364 298.017 385.716 298.593C385.092 299.169 384.216 299.457 383.088 299.457C381.984 299.457 381.108 299.169 380.46 298.593C379.812 298.017 379.488 297.225 379.488 296.217C379.488 295.185 379.812 294.381 380.46 293.805C381.108 293.229 381.984 292.941 383.088 292.941Z" fill="white"/>
  <path d="M367.176 299.493C365.112 299.493 363.312 299.097 361.776 298.305C360.264 297.489 358.992 296.169 357.96 294.345L363.396 291.645C363.66 292.605 364.08 293.373 364.656 293.949C365.256 294.525 366.144 294.813 367.32 294.813C368.064 294.813 368.7 294.681 369.228 294.417C369.756 294.153 370.164 293.769 370.452 293.265C370.764 292.737 370.92 292.101 370.92 291.357C370.92 290.637 370.776 290.037 370.488 289.557C370.224 289.077 369.828 288.717 369.3 288.477C368.772 288.213 368.112 288.081 367.32 288.081C366.744 288.081 366.228 288.141 365.772 288.261C365.316 288.357 364.896 288.513 364.512 288.729C364.152 288.921 363.816 289.173 363.504 289.485L358.824 288.621L360.336 275.373H375.312V280.161H364.836L364.224 284.913L364.116 285.489H364.152C364.632 284.937 365.304 284.517 366.168 284.229C367.032 283.941 367.992 283.797 369.048 283.797C370.608 283.797 371.94 284.109 373.044 284.733C374.148 285.357 375 286.209 375.6 287.289C376.2 288.369 376.5 289.605 376.5 290.997C376.5 292.461 376.248 293.733 375.744 294.813C375.264 295.869 374.58 296.745 373.692 297.441C372.828 298.137 371.832 298.653 370.704 298.989C369.6 299.325 368.424 299.493 367.176 299.493Z" fill="white"/>
  <path d="M348.252 299.133V285.453C348.252 284.829 348.252 284.193 348.252 283.545C348.276 282.873 348.288 282.189 348.288 281.493C347.496 282.213 346.62 282.849 345.66 283.401C344.7 283.929 343.692 284.289 342.636 284.481L342.06 279.369C342.684 279.321 343.344 279.165 344.04 278.901C344.76 278.637 345.468 278.313 346.164 277.929C346.86 277.545 347.484 277.137 348.036 276.705C348.588 276.249 349.008 275.805 349.296 275.373H354.228V299.133H348.252Z" fill="white"/>
  <path d="M190.475 579.433C190.475 578.537 190.235 577.849 189.755 577.369C189.275 576.873 188.595 576.625 187.715 576.625C186.883 576.625 186.179 576.809 185.603 577.177C185.027 577.529 184.603 578.105 184.331 578.905L182.771 577.945C183.091 577.049 183.683 576.329 184.547 575.785C185.411 575.225 186.483 574.945 187.763 574.945C188.627 574.945 189.411 575.097 190.115 575.401C190.819 575.689 191.371 576.137 191.771 576.745C192.187 577.337 192.395 578.105 192.395 579.049V584.857C192.395 585.433 192.699 585.721 193.307 585.721C193.611 585.721 193.907 585.681 194.195 585.601L194.099 587.113C193.779 587.273 193.363 587.353 192.851 587.353C192.387 587.353 191.971 587.265 191.603 587.089C191.235 586.913 190.947 586.649 190.739 586.297C190.531 585.929 190.427 585.473 190.427 584.929V584.689L190.907 584.761C190.715 585.385 190.387 585.897 189.923 586.297C189.459 586.681 188.939 586.969 188.363 587.161C187.787 587.337 187.219 587.425 186.659 587.425C185.955 587.425 185.299 587.305 184.691 587.065C184.083 586.825 183.595 586.465 183.227 585.985C182.875 585.489 182.699 584.881 182.699 584.161C182.699 583.265 182.995 582.529 183.587 581.953C184.195 581.361 185.035 580.961 186.107 580.753L190.859 579.817V581.401L186.995 582.193C186.211 582.353 185.627 582.577 185.243 582.865C184.859 583.153 184.667 583.553 184.667 584.065C184.667 584.561 184.859 584.969 185.243 585.289C185.643 585.593 186.203 585.745 186.923 585.745C187.387 585.745 187.827 585.689 188.243 585.577C188.675 585.449 189.059 585.265 189.395 585.025C189.731 584.769 189.995 584.457 190.187 584.089C190.379 583.705 190.475 583.257 190.475 582.745V579.433Z" fill="#ACACAC"/>
  <path d="M174.632 587.425C173.496 587.425 172.48 587.177 171.584 586.681C170.704 586.185 170.016 585.473 169.52 584.545C169.024 583.601 168.776 582.481 168.776 581.185C168.776 579.889 169.024 578.777 169.52 577.849C170.016 576.905 170.696 576.185 171.56 575.689C172.424 575.193 173.408 574.945 174.512 574.945C175.632 574.945 176.584 575.185 177.368 575.665C178.168 576.145 178.776 576.801 179.192 577.633C179.608 578.449 179.816 579.369 179.816 580.393C179.816 580.665 179.808 580.913 179.792 581.137C179.776 581.361 179.752 581.561 179.72 581.737H170.024V580.033H178.88L177.896 580.225C177.896 579.073 177.576 578.185 176.936 577.561C176.312 576.937 175.488 576.625 174.464 576.625C173.68 576.625 173 576.809 172.424 577.177C171.864 577.529 171.424 578.049 171.104 578.737C170.8 579.409 170.648 580.225 170.648 581.185C170.648 582.129 170.808 582.945 171.128 583.633C171.448 584.321 171.896 584.849 172.472 585.217C173.064 585.569 173.768 585.745 174.584 585.745C175.464 585.745 176.176 585.577 176.72 585.241C177.28 584.905 177.728 584.449 178.064 583.873L179.576 584.761C179.272 585.305 178.88 585.777 178.4 586.177C177.936 586.577 177.384 586.889 176.744 587.113C176.12 587.321 175.416 587.425 174.632 587.425Z" fill="#ACACAC"/>
  <path d="M160.194 587.185V575.185H161.754L162.018 577.153C162.354 576.417 162.842 575.865 163.482 575.497C164.138 575.129 164.93 574.945 165.858 574.945C166.066 574.945 166.29 574.961 166.53 574.993C166.786 575.025 167.002 575.089 167.178 575.185L166.842 576.937C166.666 576.873 166.474 576.825 166.266 576.793C166.058 576.761 165.762 576.745 165.378 576.745C164.882 576.745 164.378 576.889 163.866 577.177C163.37 577.465 162.954 577.905 162.618 578.497C162.282 579.073 162.114 579.809 162.114 580.705V587.185H160.194Z" fill="#ACACAC"/>
  <path d="M153.608 579.433C153.608 578.537 153.368 577.849 152.888 577.369C152.408 576.873 151.728 576.625 150.848 576.625C150.016 576.625 149.312 576.809 148.736 577.177C148.16 577.529 147.736 578.105 147.464 578.905L145.904 577.945C146.224 577.049 146.816 576.329 147.68 575.785C148.544 575.225 149.616 574.945 150.896 574.945C151.76 574.945 152.544 575.097 153.248 575.401C153.952 575.689 154.504 576.137 154.904 576.745C155.32 577.337 155.528 578.105 155.528 579.049V584.857C155.528 585.433 155.832 585.721 156.44 585.721C156.744 585.721 157.04 585.681 157.328 585.601L157.232 587.113C156.912 587.273 156.496 587.353 155.984 587.353C155.52 587.353 155.104 587.265 154.736 587.089C154.368 586.913 154.08 586.649 153.872 586.297C153.664 585.929 153.56 585.473 153.56 584.929V584.689L154.04 584.761C153.848 585.385 153.52 585.897 153.056 586.297C152.592 586.681 152.072 586.969 151.496 587.161C150.92 587.337 150.352 587.425 149.792 587.425C149.088 587.425 148.432 587.305 147.824 587.065C147.216 586.825 146.728 586.465 146.36 585.985C146.008 585.489 145.832 584.881 145.832 584.161C145.832 583.265 146.128 582.529 146.72 581.953C147.328 581.361 148.168 580.961 149.24 580.753L153.992 579.817V581.401L150.128 582.193C149.344 582.353 148.76 582.577 148.376 582.865C147.992 583.153 147.8 583.553 147.8 584.065C147.8 584.561 147.992 584.969 148.376 585.289C148.776 585.593 149.336 585.745 150.056 585.745C150.52 585.745 150.96 585.689 151.376 585.577C151.808 585.449 152.192 585.265 152.528 585.025C152.864 584.769 153.128 584.457 153.32 584.089C153.512 583.705 153.608 583.257 153.608 582.745V579.433Z" fill="#ACACAC"/>
  <path d="M129.585 587.425C128.449 587.425 127.433 587.177 126.537 586.681C125.657 586.185 124.969 585.473 124.473 584.545C123.977 583.601 123.729 582.481 123.729 581.185C123.729 579.889 123.977 578.777 124.473 577.849C124.969 576.905 125.649 576.185 126.513 575.689C127.377 575.193 128.361 574.945 129.465 574.945C130.585 574.945 131.537 575.185 132.321 575.665C133.121 576.145 133.729 576.801 134.145 577.633C134.561 578.449 134.769 579.369 134.769 580.393C134.769 580.665 134.761 580.913 134.745 581.137C134.729 581.361 134.705 581.561 134.673 581.737H124.977V580.033H133.833L132.849 580.225C132.849 579.073 132.529 578.185 131.889 577.561C131.265 576.937 130.441 576.625 129.417 576.625C128.633 576.625 127.953 576.809 127.377 577.177C126.817 577.529 126.377 578.049 126.057 578.737C125.753 579.409 125.601 580.225 125.601 581.185C125.601 582.129 125.761 582.945 126.081 583.633C126.401 584.321 126.849 584.849 127.425 585.217C128.017 585.569 128.721 585.745 129.537 585.745C130.417 585.745 131.129 585.577 131.673 585.241C132.233 584.905 132.681 584.449 133.017 583.873L134.529 584.761C134.225 585.305 133.833 585.777 133.353 586.177C132.889 586.577 132.337 586.889 131.697 587.113C131.073 587.321 130.369 587.425 129.585 587.425Z" fill="#ACACAC"/>
  <path d="M120.044 575.185H122.06L117.068 587.185H115.148L110.156 575.185H112.34L116.132 585.241L120.044 575.185Z" fill="#ACACAC"/>
  <path d="M106.685 572.881C106.253 572.881 105.901 572.753 105.629 572.497C105.373 572.225 105.245 571.873 105.245 571.441C105.245 571.009 105.373 570.665 105.629 570.409C105.901 570.137 106.253 570.001 106.685 570.001C107.117 570.001 107.461 570.137 107.717 570.409C107.989 570.665 108.125 571.009 108.125 571.441C108.125 571.873 107.989 572.225 107.717 572.497C107.461 572.753 107.117 572.881 106.685 572.881ZM107.645 575.185V587.185H105.725V575.185H107.645Z" fill="#ACACAC"/>
  <path d="M98.5025 571.777V583.873C98.5025 584.465 98.6705 584.905 99.0065 585.193C99.3425 585.481 99.7745 585.625 100.302 585.625C100.766 585.625 101.167 585.545 101.503 585.385C101.839 585.225 102.143 585.009 102.415 584.737L103.087 586.345C102.719 586.681 102.278 586.945 101.766 587.137C101.27 587.329 100.694 587.425 100.038 587.425C99.4305 587.425 98.8625 587.321 98.3345 587.113C97.8065 586.889 97.3825 586.545 97.0625 586.081C96.7585 585.601 96.5985 584.977 96.5825 584.209V572.305L98.5025 571.777ZM102.87 575.185V576.841H94.1825V575.185H102.87Z" fill="#ACACAC"/>
  <path d="M87.2088 574.945C88.0408 574.945 88.7688 575.073 89.3928 575.329C90.0328 575.585 90.5848 575.953 91.0488 576.433C91.5128 576.913 91.8888 577.481 92.1768 578.137L90.3528 579.001C90.0968 578.233 89.7048 577.649 89.1768 577.249C88.6648 576.833 87.9928 576.625 87.1608 576.625C86.3608 576.625 85.6728 576.809 85.0968 577.177C84.5208 577.529 84.0808 578.049 83.7768 578.737C83.4728 579.409 83.3208 580.225 83.3208 581.185C83.3208 582.129 83.4728 582.945 83.7768 583.633C84.0808 584.321 84.5208 584.849 85.0968 585.217C85.6728 585.569 86.3608 585.745 87.1608 585.745C87.7848 585.745 88.3208 585.649 88.7688 585.457C89.2328 585.265 89.6088 584.985 89.8968 584.617C90.2008 584.249 90.4088 583.801 90.5208 583.273L92.2968 583.897C92.0248 584.633 91.6488 585.265 91.1688 585.793C90.7048 586.321 90.1368 586.729 89.4648 587.017C88.8088 587.289 88.0568 587.425 87.2088 587.425C86.0888 587.425 85.0888 587.177 84.2088 586.681C83.3288 586.185 82.6408 585.473 82.1448 584.545C81.6488 583.601 81.4008 582.481 81.4008 581.185C81.4008 579.889 81.6488 578.777 82.1448 577.849C82.6408 576.905 83.3288 576.185 84.2088 575.689C85.0888 575.193 86.0888 574.945 87.2088 574.945Z" fill="#ACACAC"/>
  <path d="M79.592 587.185H77.552L75.872 582.793H68.696L67.016 587.185H65L71.168 571.345H73.448L79.592 587.185ZM69.392 580.993H75.176L72.272 573.193L69.392 580.993Z" fill="#ACACAC"/>
</svg>