<svg xmlns="http://www.w3.org/2000/svg" width="700" height="700" viewBox="0 0 700 700" fill="none">
  <path d="M211 228.5C211 224.082 214.582 220.5 219 220.5H408C412.418 220.5 416 224.082 416 228.5V423.148C416 427.566 412.418 431.148 408 431.148H219C214.582 431.148 211 427.566 211 423.148V228.5Z" fill="#303030"/>
  <path fill-rule="evenodd" clip-rule="evenodd" d="M408 221H219C214.858 221 211.5 224.358 211.5 228.5V423.148C211.5 427.29 214.858 430.648 219 430.648H408C412.142 430.648 415.5 427.29 415.5 423.148V228.5C415.5 224.358 412.142 221 408 221ZM219 220.5C214.582 220.5 211 224.082 211 228.5V423.148C211 427.566 214.582 431.148 219 431.148H408C412.418 431.148 416 427.566 416 423.148V228.5C416 224.082 412.418 220.5 408 220.5H219Z" fill="#FAFAFA"/>
  <path d="M233 431H394V454C394 454.552 393.552 455 393 455H234C233.448 455 233 454.552 233 454V431Z" fill="#303030"/>
  <path fill-rule="evenodd" clip-rule="evenodd" d="M393.5 431.5H233.5V454C233.5 454.276 233.724 454.5 234 454.5H393C393.276 454.5 393.5 454.276 393.5 454V431.5ZM233 431V454C233 454.552 233.448 455 234 455H393C393.552 455 394 454.552 394 454V431H233Z" fill="#FAFAFA"/>
  <path d="M233 198C233 197.448 233.448 197 234 197H393C393.552 197 394 197.448 394 198V221H233V198Z" fill="#303030"/>
  <path fill-rule="evenodd" clip-rule="evenodd" d="M393 197.5H234C233.724 197.5 233.5 197.724 233.5 198V220.5H393.5V198C393.5 197.724 393.276 197.5 393 197.5ZM234 197C233.448 197 233 197.448 233 198V221H394V198C394 197.448 393.552 197 393 197H234Z" fill="#FAFAFA"/>
  <path d="M313.115 331.017C322.678 331.017 329.923 327.495 333.787 321.379L324.223 317.025C322.066 320.483 318.234 322.404 313.469 322.404C306.964 322.404 302.746 319.298 302.295 314.303H334.592V311.358C334.592 308.668 334.205 306.235 333.433 304.058H321.39C321.776 304.986 322.002 306.043 322.002 307.228V307.452H302.231C302.328 306.203 302.617 305.05 303.068 304.058H293.408V322.916C297.176 328.135 304.034 331.017 313.115 331.017Z" fill="white"/>
  <path d="M312.535 335.239C303.841 335.239 297.143 338.248 293.408 343.627V348.942H302.521C303.551 344.876 307.061 342.475 312.374 342.475C317.59 342.475 321.164 344.876 321.873 348.942H333.916C331.726 340.233 324.223 335.239 312.535 335.239Z" fill="white"/>
  <path d="M466.604 358V344H468.564L468.704 346.184C469.208 345.325 469.861 344.7 470.664 344.308C471.485 343.916 472.325 343.72 473.184 343.72C474.173 343.72 475.107 343.944 475.984 344.392C476.861 344.84 477.533 345.531 478 346.464C478.299 345.829 478.719 345.316 479.26 344.924C479.801 344.513 480.389 344.215 481.024 344.028C481.677 343.823 482.293 343.72 482.872 343.72C483.768 343.72 484.617 343.907 485.42 344.28C486.241 344.653 486.913 345.232 487.436 346.016C487.959 346.8 488.22 347.808 488.22 349.04V358H485.98V349.264C485.98 347.995 485.663 347.08 485.028 346.52C484.393 345.96 483.609 345.68 482.676 345.68C481.948 345.68 481.267 345.857 480.632 346.212C479.997 346.567 479.484 347.089 479.092 347.78C478.719 348.471 478.532 349.32 478.532 350.328V358H476.292V349.264C476.292 347.995 475.975 347.08 475.34 346.52C474.705 345.96 473.921 345.68 472.988 345.68C472.372 345.68 471.737 345.848 471.084 346.184C470.449 346.501 469.917 347.015 469.488 347.724C469.059 348.433 468.844 349.367 468.844 350.524V358H466.604Z" fill="white"/>
  <path d="M439.916 358V344H441.876L442.016 346.184C442.52 345.325 443.174 344.7 443.976 344.308C444.798 343.916 445.638 343.72 446.496 343.72C447.486 343.72 448.419 343.944 449.296 344.392C450.174 344.84 450.846 345.531 451.312 346.464C451.611 345.829 452.031 345.316 452.572 344.924C453.114 344.513 453.702 344.215 454.336 344.028C454.99 343.823 455.606 343.72 456.184 343.72C457.08 343.72 457.93 343.907 458.732 344.28C459.554 344.653 460.226 345.232 460.748 346.016C461.271 346.8 461.532 347.808 461.532 349.04V358H459.292V349.264C459.292 347.995 458.975 347.08 458.34 346.52C457.706 345.96 456.922 345.68 455.988 345.68C455.26 345.68 454.579 345.857 453.944 346.212C453.31 346.567 452.796 347.089 452.404 347.78C452.031 348.471 451.844 349.32 451.844 350.328V358H449.604V349.264C449.604 347.995 449.287 347.08 448.652 346.52C448.018 345.96 447.234 345.68 446.3 345.68C445.684 345.68 445.05 345.848 444.396 346.184C443.762 346.501 443.23 347.015 442.8 347.724C442.371 348.433 442.156 349.367 442.156 350.524V358H439.916Z" fill="white"/>
  <path d="M480.226 318.32C477.346 318.32 475.159 317.403 473.666 315.568C472.194 313.733 471.458 311.024 471.458 307.44C471.458 303.856 472.194 301.147 473.666 299.312C475.159 297.477 477.346 296.56 480.226 296.56C483.106 296.56 485.282 297.477 486.754 299.312C488.247 301.147 488.994 303.856 488.994 307.44C488.994 311.024 488.247 313.733 486.754 315.568C485.282 317.403 483.106 318.32 480.226 318.32ZM480.226 314.032C481.015 314.032 481.655 313.819 482.146 313.392C482.637 312.944 482.989 312.24 483.202 311.28C483.437 310.299 483.554 309.019 483.554 307.44C483.554 305.861 483.437 304.592 483.202 303.632C482.989 302.651 482.637 301.947 482.146 301.52C481.655 301.072 481.015 300.848 480.226 300.848C479.458 300.848 478.818 301.072 478.306 301.52C477.815 301.947 477.453 302.651 477.218 303.632C477.005 304.592 476.898 305.861 476.898 307.44C476.898 309.019 477.005 310.299 477.218 311.28C477.453 312.24 477.815 312.944 478.306 313.392C478.818 313.819 479.458 314.032 480.226 314.032Z" fill="white"/>
  <path d="M460.418 318.32C458.583 318.32 456.983 317.968 455.618 317.264C454.274 316.539 453.143 315.365 452.226 313.744L457.058 311.344C457.292 312.197 457.666 312.88 458.178 313.392C458.711 313.904 459.5 314.16 460.546 314.16C461.207 314.16 461.772 314.043 462.242 313.808C462.711 313.573 463.074 313.232 463.33 312.784C463.607 312.315 463.746 311.749 463.746 311.088C463.746 310.448 463.618 309.915 463.362 309.488C463.127 309.061 462.775 308.741 462.306 308.528C461.836 308.293 461.25 308.176 460.546 308.176C460.034 308.176 459.575 308.229 459.17 308.336C458.764 308.421 458.391 308.56 458.05 308.752C457.73 308.923 457.431 309.147 457.154 309.424L452.994 308.656L454.338 296.88H467.65V301.136H458.338L457.794 305.36L457.698 305.872H457.73C458.156 305.381 458.754 305.008 459.522 304.752C460.29 304.496 461.143 304.368 462.082 304.368C463.468 304.368 464.652 304.645 465.634 305.2C466.615 305.755 467.372 306.512 467.906 307.472C468.439 308.432 468.706 309.531 468.706 310.768C468.706 312.069 468.482 313.2 468.034 314.16C467.607 315.099 466.999 315.877 466.21 316.496C465.442 317.115 464.556 317.573 463.554 317.872C462.572 318.171 461.527 318.32 460.418 318.32Z" fill="white"/>
  <path d="M443.596 318V305.84C443.596 305.285 443.596 304.72 443.596 304.144C443.618 303.547 443.628 302.939 443.628 302.32C442.924 302.96 442.146 303.525 441.292 304.016C440.439 304.485 439.543 304.805 438.604 304.976L438.092 300.432C438.647 300.389 439.234 300.251 439.852 300.016C440.492 299.781 441.122 299.493 441.74 299.152C442.359 298.811 442.914 298.448 443.404 298.064C443.895 297.659 444.268 297.264 444.524 296.88H448.908V318H443.596Z" fill="white"/>
  <path fill-rule="evenodd" clip-rule="evenodd" d="M468.898 449.343L462.534 455.707C462.143 456.098 461.51 456.098 461.119 455.707L454.755 449.343C454.365 448.953 454.365 448.319 454.755 447.929C455.146 447.538 455.779 447.538 456.17 447.929L460.826 452.586V377.5H462.826V452.586L467.483 447.929C467.874 447.538 468.507 447.538 468.898 447.929C469.288 448.319 469.288 448.953 468.898 449.343ZM461.119 197.293C461.51 196.902 462.143 196.902 462.534 197.293L468.897 203.657C469.288 204.047 469.288 204.681 468.897 205.071C468.507 205.462 467.874 205.462 467.483 205.071L462.826 200.414V280.5H460.826V200.414L456.17 205.071C455.779 205.462 455.146 205.462 454.755 205.071C454.365 204.681 454.365 204.047 454.755 203.657L461.119 197.293Z" fill="white"/>
  <path d="M347.401 504V490H349.361L349.501 492.184C350.005 491.325 350.658 490.7 351.461 490.308C352.282 489.916 353.122 489.72 353.981 489.72C354.97 489.72 355.904 489.944 356.781 490.392C357.658 490.84 358.33 491.531 358.797 492.464C359.096 491.829 359.516 491.316 360.057 490.924C360.598 490.513 361.186 490.215 361.821 490.028C362.474 489.823 363.09 489.72 363.669 489.72C364.565 489.72 365.414 489.907 366.217 490.28C367.038 490.653 367.71 491.232 368.233 492.016C368.756 492.8 369.017 493.808 369.017 495.04V504H366.777V495.264C366.777 493.995 366.46 493.08 365.825 492.52C365.19 491.96 364.406 491.68 363.473 491.68C362.745 491.68 362.064 491.857 361.429 492.212C360.794 492.567 360.281 493.089 359.889 493.78C359.516 494.471 359.329 495.32 359.329 496.328V504H357.089V495.264C357.089 493.995 356.772 493.08 356.137 492.52C355.502 491.96 354.718 491.68 353.785 491.68C353.169 491.68 352.534 491.848 351.881 492.184C351.246 492.501 350.714 493.015 350.285 493.724C349.856 494.433 349.641 495.367 349.641 496.524V504H347.401Z" fill="white"/>
  <path d="M320.713 504V490H322.673L322.813 492.184C323.317 491.325 323.971 490.7 324.773 490.308C325.595 489.916 326.435 489.72 327.293 489.72C328.283 489.72 329.216 489.944 330.093 490.392C330.971 490.84 331.643 491.531 332.109 492.464C332.408 491.829 332.828 491.316 333.369 490.924C333.911 490.513 334.499 490.215 335.133 490.028C335.787 489.823 336.403 489.72 336.981 489.72C337.877 489.72 338.727 489.907 339.529 490.28C340.351 490.653 341.023 491.232 341.545 492.016C342.068 492.8 342.329 493.808 342.329 495.04V504H340.089V495.264C340.089 493.995 339.772 493.08 339.137 492.52C338.503 491.96 337.719 491.68 336.785 491.68C336.057 491.68 335.376 491.857 334.741 492.212C334.107 492.567 333.593 493.089 333.201 493.78C332.828 494.471 332.641 495.32 332.641 496.328V504H330.401V495.264C330.401 493.995 330.084 493.08 329.449 492.52C328.815 491.96 328.031 491.68 327.097 491.68C326.481 491.68 325.847 491.848 325.193 492.184C324.559 492.501 324.027 493.015 323.597 493.724C323.168 494.433 322.953 495.367 322.953 496.524V504H320.713Z" fill="white"/>
  <path d="M298.663 504.32C295.783 504.32 293.597 503.403 292.103 501.568C290.631 499.733 289.895 497.024 289.895 493.44C289.895 489.856 290.631 487.147 292.103 485.312C293.597 483.477 295.783 482.56 298.663 482.56C301.543 482.56 303.719 483.477 305.191 485.312C306.685 487.147 307.431 489.856 307.431 493.44C307.431 497.024 306.685 499.733 305.191 501.568C303.719 503.403 301.543 504.32 298.663 504.32ZM298.663 500.032C299.453 500.032 300.093 499.819 300.583 499.392C301.074 498.944 301.426 498.24 301.639 497.28C301.874 496.299 301.991 495.019 301.991 493.44C301.991 491.861 301.874 490.592 301.639 489.632C301.426 488.651 301.074 487.947 300.583 487.52C300.093 487.072 299.453 486.848 298.663 486.848C297.895 486.848 297.255 487.072 296.743 487.52C296.253 487.947 295.89 488.651 295.655 489.632C295.442 490.592 295.335 491.861 295.335 493.44C295.335 495.019 295.442 496.299 295.655 497.28C295.89 498.24 296.253 498.944 296.743 499.392C297.255 499.819 297.895 500.032 298.663 500.032Z" fill="white"/>
  <path d="M271.217 504V500.48C273.03 499.349 274.577 498.293 275.857 497.312C277.137 496.331 278.172 495.403 278.961 494.528C279.772 493.653 280.369 492.821 280.753 492.032C281.137 491.243 281.329 490.475 281.329 489.728C281.329 488.917 281.084 488.245 280.593 487.712C280.124 487.157 279.42 486.88 278.481 486.88C277.478 486.88 276.7 487.253 276.145 488C275.59 488.725 275.292 489.792 275.249 491.2L270.545 489.76C270.588 488.181 270.961 486.859 271.665 485.792C272.39 484.725 273.372 483.925 274.609 483.392C275.846 482.837 277.254 482.56 278.833 482.56C280.22 482.56 281.414 482.763 282.417 483.168C283.441 483.552 284.273 484.075 284.913 484.736C285.553 485.376 286.022 486.101 286.321 486.912C286.641 487.701 286.801 488.512 286.801 489.344C286.801 490.709 286.449 491.989 285.745 493.184C285.041 494.357 284.017 495.499 282.673 496.608C281.35 497.696 279.74 498.795 277.841 499.904V499.936C278.204 499.915 278.63 499.893 279.121 499.872C279.612 499.851 280.124 499.84 280.657 499.84C281.19 499.819 281.67 499.808 282.097 499.808H287.057V504H271.217Z" fill="white"/>
  <path d="M261.628 504V491.84C261.628 491.285 261.628 490.72 261.628 490.144C261.649 489.547 261.66 488.939 261.66 488.32C260.956 488.96 260.177 489.525 259.324 490.016C258.47 490.485 257.574 490.805 256.636 490.976L256.124 486.432C256.678 486.389 257.265 486.251 257.884 486.016C258.524 485.781 259.153 485.493 259.772 485.152C260.39 484.811 260.945 484.448 261.436 484.064C261.926 483.659 262.3 483.264 262.556 482.88H266.94V504H261.628Z" fill="white"/>
  <path fill-rule="evenodd" clip-rule="evenodd" d="M215.293 496.375C214.902 495.985 214.902 495.351 215.293 494.961L221.657 488.597C222.047 488.206 222.681 488.206 223.071 488.597C223.462 488.987 223.462 489.621 223.071 490.011L218.414 494.668H251V496.668H218.414L223.071 501.325C223.462 501.715 223.462 502.349 223.071 502.739C222.681 503.13 222.047 503.13 221.657 502.739L215.293 496.375ZM410.343 488.597L416.707 494.961C417.098 495.351 417.098 495.985 416.707 496.375L410.343 502.739C409.953 503.13 409.319 503.13 408.929 502.739C408.538 502.349 408.538 501.715 408.929 501.325L413.586 496.668H380.5V494.668H413.586L408.929 490.011C408.538 489.621 408.538 488.988 408.929 488.597C409.319 488.206 409.953 488.206 410.343 488.597Z" fill="white"/>
</svg>