<svg width="155" height="28" viewBox="0 0 155 28" fill="none" xmlns="http://www.w3.org/2000/svg">
          <g clip-path="url(#clip0_434_520)"><path fill-rule="evenodd" clip-rule="evenodd" d="M19.5002 9.58935C19.5002 8.47222 19.3437 7.45284 19.0536 6.52899C17.9174 2.9126 14.6205 0.838379 9.5848 0.838379C4.74751 0.838379 1.28841 2.93482 0.027832 6.52899V12.9706C1.29571 16.4768 4.80102 18.4737 9.85095 18.4737C14.1433 18.4737 17.4039 16.8767 19.1342 14.1153L14.8419 12.1521C13.8771 13.7157 12.1468 14.5809 10.0173 14.5809C7.08923 14.5809 5.19233 13.1835 4.99271 10.921H19.5002V9.58935ZM13.8437 7.72641C13.8437 7.29289 13.7803 6.89333 13.6613 6.52899C13.1582 4.99167 11.6432 4.09932 9.51816 4.09932C7.34959 4.09932 5.87784 5.00532 5.28024 6.52899C5.126 6.92221 5.02698 7.35478 4.99271 7.82575H13.8437V7.72641Z" fill="#FFFFFF"></path><path d="M31.1806 11.8186L26.6553 11.2864C22.8183 10.7748 20.8916 9.24572 20.7465 6.52875C20.7405 6.41862 20.7322 6.30977 20.7322 6.19552C20.7322 2.83493 23.8601 0.838379 29.4832 0.838379C33.476 0.838379 36.7036 1.90314 38.5669 3.83305L35.9051 6.52844C34.2082 5.16408 32.0787 4.46524 29.051 4.46524C26.8548 4.46524 25.89 4.89781 25.89 5.86261C25.89 6.13173 25.9643 6.34817 26.1088 6.52875C26.3941 6.88515 26.9701 7.09398 27.9193 7.22664L32.9439 7.7925C36.97 8.32504 38.6336 9.92203 38.6336 12.8167C38.6336 16.3106 35.6723 18.4731 29.8826 18.4731C25.2909 18.4731 21.797 17.1757 19.7675 14.647L22.8288 12.1179C24.3928 13.8482 26.7216 14.78 30.1821 14.78C32.5116 14.78 33.5431 14.2477 33.5431 13.2493C33.5431 12.3845 33.0108 12.0519 31.1806 11.8186Z" fill="#FFFFFF"></path><path fill-rule="evenodd" clip-rule="evenodd" d="M45.3231 24.4631V15.6454C46.6871 17.3757 48.85 18.4738 51.645 18.4738C56.7026 18.4738 60.1298 14.9802 60.1298 9.58978C60.1298 8.48249 59.9778 7.46152 59.7042 6.52942C58.6706 3.00824 55.7984 0.838379 51.878 0.838379C48.983 0.838379 46.5208 1.96947 45.1235 4.099V1.3376H39.5667V6.52942V24.4635L45.3231 24.4631ZM54.1738 9.58978C54.1738 8.34888 53.9075 7.32093 53.4131 6.52942C52.6746 5.34755 51.4226 4.6985 49.7485 4.6985C48.0404 4.6985 46.703 5.34977 45.9299 6.52942C45.4529 7.25746 45.1898 8.18607 45.1898 9.2905V9.9557C45.1898 12.7841 46.9867 14.6143 49.7151 14.6143C52.4769 14.6143 54.1738 12.6847 54.1738 9.58978Z" fill="#FFFFFF"></path><path d="M67.651 11.7521V17.9744H61.8943V6.52887V1.33767H67.1185V5.896C68.0169 2.80168 70.2461 0.904785 73.5404 0.904785C74.0063 0.904785 74.3058 0.904789 74.6384 0.971753V6.1956C74.0726 6.12927 73.5737 6.0623 72.9415 6.0623C71.9101 6.0623 71.0408 6.2242 70.3289 6.52887C69.8697 6.72564 69.4746 6.98016 69.1483 7.2934C68.0169 8.32516 67.651 9.95515 67.651 11.7521Z" fill="#FFFFFF"></path><path fill-rule="evenodd" clip-rule="evenodd" d="M84.7876 18.4735C89.08 18.4735 92.3409 16.8765 94.0712 14.1151L89.7788 12.1519C88.814 13.7156 87.0837 14.5807 84.9542 14.5807C82.0262 14.5807 80.1296 13.1833 79.9297 10.9208H94.4371V9.58947C94.4371 8.47234 94.2807 7.45297 93.9906 6.52911C92.8544 2.91273 89.5569 0.838379 84.5212 0.838379C79.6842 0.838379 76.2257 2.93494 74.9651 6.52911C74.6214 7.50882 74.4402 8.59898 74.4402 9.7891C74.4396 15.2462 78.366 18.4735 84.7876 18.4735ZM88.7807 7.72654C88.7807 7.29301 88.7172 6.89345 88.5982 6.52911C88.0955 4.99179 86.58 4.09932 84.4549 4.09932C82.2863 4.09932 80.8154 5.00544 80.2175 6.52911C80.0633 6.92233 79.9643 7.3549 79.93 7.82587H88.7807V7.72654Z" fill="#FFFFFF"></path><path d="M105.951 11.8186L101.426 11.2864C97.5887 10.7748 95.662 9.24572 95.517 6.52875C95.5109 6.41862 95.5029 6.30977 95.5029 6.19552C95.5029 2.83493 98.6308 0.838379 104.254 0.838379C108.247 0.838379 111.474 1.90314 113.338 3.83305L110.676 6.52844C108.979 5.16408 106.85 4.46524 103.822 4.46524C101.626 4.46524 100.661 4.89781 100.661 5.86261C100.661 6.13173 100.735 6.34817 100.88 6.52875C101.165 6.88515 101.741 7.09398 102.69 7.22664L107.714 7.7925C111.74 8.32504 113.404 9.92203 113.404 12.8167C113.404 16.3106 110.443 18.4731 104.653 18.4731C100.061 18.4731 96.5675 17.1757 94.5379 14.647L97.5992 12.1179C99.1632 13.8482 101.492 14.78 104.953 14.78C107.282 14.78 108.313 14.2477 108.313 13.2493C108.313 12.3845 107.781 12.0519 105.951 11.8186Z" fill="#FFFFFF"></path><path d="M125.018 11.8186L120.493 11.2864C116.656 10.7748 114.729 9.24572 114.584 6.52875C114.578 6.41862 114.57 6.30977 114.57 6.19552C114.57 2.83493 117.698 0.838379 123.321 0.838379C127.314 0.838379 130.542 1.90314 132.405 3.83305L129.743 6.52844C128.046 5.16408 125.917 4.46524 122.889 4.46524C120.692 4.46524 119.728 4.89781 119.728 5.86261C119.728 6.13173 119.802 6.34817 119.947 6.52875C120.232 6.88515 120.808 7.09398 121.757 7.22664L126.781 7.7925C130.807 8.32504 132.471 9.92203 132.471 12.8167C132.471 16.3106 129.509 18.4731 123.72 18.4731C119.128 18.4731 115.635 17.1757 113.605 14.647L116.666 12.1179C118.23 13.8482 120.559 14.78 124.02 14.78C126.349 14.78 127.38 14.2477 127.38 13.2493C127.38 12.3845 126.848 12.0519 125.018 11.8186Z" fill="#FFFFFF"></path><path fill-rule="evenodd" clip-rule="evenodd" d="M143.652 18.4735C149.742 18.4735 154.034 15.2462 154.034 9.6228C154.034 8.49044 153.855 7.45836 153.523 6.52911C152.218 2.87179 148.508 0.838379 143.652 0.838379C138.77 0.838379 135.055 2.87147 133.749 6.52911C133.417 7.45836 133.238 8.49044 133.238 9.6228C133.238 15.2462 137.53 18.4735 143.652 18.4735ZM148.178 9.6228C148.178 8.35429 147.901 7.32094 147.403 6.52911C146.634 5.3063 145.329 4.66518 143.652 4.66518C141.956 4.66518 140.643 5.3063 139.87 6.52911C139.37 7.32094 139.094 8.35429 139.094 9.6228C139.094 12.8504 140.857 14.6473 143.652 14.6473C146.414 14.6473 148.178 12.8504 148.178 9.6228Z" fill="#FFFFFF"></path><path d="M74.0704 26.9763V22.0742H76.8737C78.6272 22.0742 79.8563 22.8616 79.8563 24.4421C79.8563 26.0302 78.5929 26.9759 76.8874 26.9759H74.0704V26.9763ZM74.8023 26.3821H76.901C78.2682 26.3821 79.1035 25.7125 79.1035 24.4421C79.1035 23.2063 78.1435 22.668 76.7973 22.668H74.802V26.3821H74.8023Z" fill="#FFFFFF"></path><path d="M86.9323 26.9763H86.2004V22.0742H86.9323V26.9763Z" fill="#FFFFFF"></path><path d="M93.318 25.4572L94.0638 25.2985C94.3396 26.1271 95.0787 26.5483 96.3628 26.5483C97.5364 26.5483 98.082 26.2785 98.082 25.6781C98.082 25.1671 97.7227 24.9329 96.8252 24.8497L95.2441 24.7044C94.1187 24.6006 93.5938 24.1728 93.5938 23.3654C93.5938 22.4403 94.4707 21.9087 96.0312 21.9087C97.5637 21.9087 98.4333 22.4124 98.8062 23.393L98.0883 23.5999C97.8052 22.8821 97.1905 22.4952 96.0102 22.4952C94.9331 22.4952 94.3532 22.7849 94.3532 23.3238C94.3532 23.8138 94.65 24.0001 95.5408 24.0899L97.0528 24.242C98.2952 24.373 98.8341 24.7669 98.8341 25.6092C98.8341 26.6035 97.9985 27.1424 96.3485 27.1424C94.637 27.1421 93.67 26.5965 93.318 25.4572Z" fill="#FFFFFF"></path><path d="M108.521 22.0742C109.632 22.0742 110.336 22.668 110.336 23.6141C110.336 24.5735 109.556 25.1949 108.362 25.1949H106.09V26.9763H105.359V22.0742H108.521ZM108.383 24.6081C109.121 24.6081 109.577 24.2285 109.577 23.6138C109.577 23.02 109.135 22.6677 108.389 22.6677H106.09V24.6078H108.383V24.6081Z" fill="#FFFFFF"></path><path d="M116.667 26.9763V22.0742H117.399V26.3549H121.141V26.9763H116.667Z" fill="#FFFFFF"></path><path d="M132.525 26.9763L131.938 25.8925H128.424L127.837 26.9763H127.05L129.798 22.0742H130.557L133.312 26.9763H132.525ZM128.742 25.305H131.621L130.412 23.0749C130.357 22.9578 130.253 22.7575 130.185 22.6195H130.171C130.102 22.7575 130.005 22.9574 129.943 23.0749L128.742 25.305Z" fill="#FFFFFF"></path><path d="M140.361 26.9763V25.2155L137.793 22.0742H138.698L140.603 24.4288C140.665 24.5113 140.714 24.5808 140.734 24.6633H140.748C140.768 24.5808 140.803 24.5113 140.872 24.4288L142.812 22.0742H143.709L141.093 25.2155V26.9763H140.361Z" fill="#FFFFFF"></path><path d="M148.887 25.4572L149.633 25.2985C149.909 26.1271 150.648 26.5483 151.932 26.5483C153.106 26.5483 153.651 26.2785 153.651 25.6781C153.651 25.1671 153.292 24.9329 152.394 24.8497L150.813 24.7044C149.688 24.6006 149.163 24.1728 149.163 23.3654C149.163 22.4403 150.04 21.9087 151.6 21.9087C153.133 21.9087 154.003 22.4124 154.375 23.393L153.658 23.5999C153.374 22.8821 152.76 22.4952 151.579 22.4952C150.502 22.4952 149.922 22.7849 149.922 23.3238C149.922 23.8138 150.219 24.0001 151.11 24.0899L152.622 24.242C153.864 24.373 154.403 24.7669 154.403 25.6092C154.403 26.6035 153.568 27.1424 151.918 27.1424C150.206 27.1421 149.239 26.5965 148.887 25.4572Z" fill="#FFFFFF"></path></g><defs><clipPath id="clip0_434_520"><rect width="154.323" height="26.3581" fill="#FFFFFF" transform="translate(0 0.820801)"></rect></clipPath></defs>
        </svg>